<svg xmlns="http://www.w3.org/2000/svg" viewBox="0 0 240 254"><g transform="translate(0.000000,254.000000) scale(0.100000,-0.100000)" fill="#c06659" stroke="#c06659" stroke-width="1.5" fill-rule="evenodd"><path d="M701 2509 c16 -17 26 -36 22 -42 -3 -6 -1 -7 5 -3 18 11 14 23 -15
51 -39 35 -47 31 -12 -6z"/><path d="M1643 2484 c-13 -11 -23 -26 -23 -31 0 -6 -7 -13 -15 -17 -8 -3 -15
-13 -15 -21 0 -9 -4 -14 -9 -11 -5 4 -7 -4 -3 -16 3 -13 1 -19 -6 -15 -5 4
-13 1 -16 -5 -3 -7 -5 1 -3 19 5 50 -10 29 -23 -32 -12 -57 -26 -71 -33 -32
-2 12 -5 0 -6 -26 0 -29 -5 -46 -11 -42 -6 4 -10 -10 -10 -34 0 -23 -5 -41
-11 -41 -5 0 -7 5 -3 11 3 6 -5 3 -19 -6 -15 -9 -31 -14 -37 -10 -5 3 -10 1
-10 -4 0 -6 -7 -11 -16 -11 -8 0 -12 4 -9 10 4 7 -3 7 -20 0 -32 -12 -128 -9
-137 5 -5 7 -8 6 -8 -2 0 -12 -70 -11 -90 2 -5 3 -10 1 -10 -5 0 -7 -6 -8 -19
0 -14 7 -21 6 -24 -3 -3 -9 -7 -9 -19 1 -12 9 -18 10 -23 2 -4 -7 -12 -5 -23
8 -10 10 -23 17 -30 14 -9 -3 -12 4 -11 19 5 58 -3 144 -11 119 -7 -21 -8 -18
-9 20 -2 57 -20 92 -22 40 0 -19 -3 -29 -6 -22 -2 6 -9 10 -14 6 -5 -3 -9 3
-9 13 -1 33 -29 74 -30 43 -1 -24 -1 -24 -12 -5 -27 46 -56 70 -51 41 6 -30
-4 -34 -22 -9 -13 18 -39 9 -31 -12 2 -7 -13 -1 -35 13 -37 24 -93 37 -82 19
3 -5 -3 -6 -13 -3 -11 3 -34 2 -51 -3 -18 -5 -33 -6 -35 -2 -2 5 -23 5 -48 1
-25 -4 -35 -8 -24 -9 12 0 34 -7 48 -15 27 -14 27 -14 -9 -20 -19 -4 -35 -12
-35 -18 0 -5 -7 -8 -15 -4 -8 3 -15 1 -15 -5 0 -7 -26 -10 -74 -7 -41 2 -69 0
-63 -4 7 -4 8 -8 2 -8 -5 -1 -35 -3 -67 -4 -52 -3 -96 -24 -81 -40 4 -3 -7 -6
-23 -6 -29 -1 -29 -1 -4 -15 14 -8 20 -14 13 -15 -6 0 -18 -14 -27 -30 -8 -17
-11 -28 -7 -26 4 3 8 -13 9 -36 1 -23 9 -53 18 -66 23 -36 28 -101 8 -109 -14
-5 -13 -8 4 -17 34 -18 11 -41 -42 -41 -48 0 -41 -11 14 -20 68 -12 88 -30 52
-46 -18 -8 -34 -19 -36 -26 -4 -10 -1 -10 13 -1 10 6 27 8 37 4 18 -8 -2 -25
-26 -23 -3 0 -21 -8 -40 -19 -19 -10 -37 -18 -40 -17 -3 0 -14 -8 -25 -19 -20
-21 -20 -21 3 -9 12 6 22 10 22 7 0 -3 13 -1 30 4 44 13 48 -7 9 -44 -19 -17
-37 -32 -41 -34 -14 -4 -14 -15 0 -19 6 -3 12 0 12 5 0 13 33 22 95 29 l50 5
-33 -25 c-35 -26 -26 -40 20 -31 20 5 21 4 6 -6 -10 -6 -23 -20 -29 -32 -9
-16 -8 -19 2 -13 9 6 11 3 6 -9 -4 -10 -7 -19 -7 -22 0 -2 -7 -1 -15 3 -10 3
-15 1 -13 -7 2 -8 -8 -19 -22 -27 -14 -7 -21 -13 -16 -13 6 0 -3 -13 -19 -30
-37 -39 -27 -39 15 0 18 16 37 27 43 23 6 -4 7 -1 2 7 -6 10 -4 12 8 7 10 -4
17 -1 17 5 0 6 3 9 6 5 4 -3 -3 -23 -15 -44 l-22 -38 28 31 c15 18 42 40 58
49 17 9 23 11 14 4 -9 -8 -14 -19 -12 -26 2 -6 -1 -15 -8 -19 -8 -5 -9 -3 -4
6 5 8 4 11 -2 7 -6 -4 -9 -18 -7 -32 1 -16 -3 -28 -12 -32 -8 -3 -14 -9 -14
-15 0 -5 6 -6 13 -3 6 4 5 1 -3 -7 -8 -7 -16 -22 -18 -33 -2 -15 3 -12 20 12
27 37 58 51 51 22 -3 -10 -9 -17 -13 -14 -4 3 -13 -9 -20 -25 -7 -16 -15 -28
-19 -25 -4 2 -12 -10 -19 -27 -11 -29 -10 -29 7 -14 10 9 23 16 30 16 7 0 10
4 6 9 -3 5 -1 12 4 15 17 11 23 -15 7 -27 -9 -7 -18 -23 -21 -36 -2 -13 -15
-36 -27 -50 -18 -19 -18 -22 -3 -11 19 15 19 15 0 -11 -11 -15 -23 -25 -26
-23 -4 2 -9 -3 -13 -11 -3 -8 -12 -15 -21 -15 -8 0 -15 -4 -15 -9 0 -5 15 -7
33 -5 17 1 35 3 39 3 4 1 16 11 28 23 16 17 20 19 20 6 0 -9 -12 -26 -27 -38
-23 -17 -24 -19 -5 -10 34 17 39 4 11 -27 -16 -18 -17 -22 -5 -13 19 15 19 15
1 -17 -10 -18 -22 -30 -26 -27 -4 2 -6 -4 -4 -13 2 -10 4 -20 4 -23 1 -3 5 0
9 5 4 6 22 18 40 28 34 17 34 17 15 -15 -10 -18 -29 -37 -41 -43 -12 -5 -24
-15 -27 -22 -3 -9 3 -8 20 3 19 13 23 13 21 1 -2 -19 -32 -48 -40 -40 -3 4 -6
-1 -6 -11 0 -11 -5 -15 -12 -10 -7 4 -10 3 -5 -1 4 -5 -1 -18 -10 -29 -16 -19
-15 -19 7 1 48 42 83 19 43 -29 -8 -9 -12 -22 -8 -27 3 -6 2 -11 -2 -11 -5 0
-9 -10 -10 -22 -2 -21 -1 -22 11 -6 7 10 17 14 22 10 5 -4 6 -3 2 2 -9 10 20
35 40 36 9 0 7 -8 -7 -26 -12 -15 -21 -34 -21 -43 0 -14 2 -14 10 -1 5 8 12
11 16 7 4 -3 1 -14 -6 -22 -7 -9 -15 -35 -17 -58 -4 -42 -4 -42 16 -18 13 15
21 19 21 10 0 -8 3 -10 8 -4 19 27 63 59 56 42 -3 -9 -9 -17 -13 -17 -3 0 -6
-28 -7 -63 -1 -34 1 -54 3 -44 7 29 28 13 27 -22 -1 -20 2 -29 10 -24 8 4 8 3
1 -5 -6 -7 -8 -31 -6 -54 4 -40 5 -41 10 -13 4 17 10 28 15 25 5 -3 13 4 17
15 7 15 8 13 4 -10 -2 -16 -1 -55 4 -85 5 -30 9 -43 10 -27 0 15 6 27 11 27 6
0 10 8 10 18 0 9 4 23 9 31 6 9 8 1 6 -25 -3 -52 4 -70 19 -48 10 14 12 6 11
-41 -2 -57 -2 -57 14 -19 l17 38 13 -56 c14 -57 32 -62 43 -12 3 12 7 5 12
-21 4 -22 10 -47 13 -55 4 -8 6 -18 5 -22 -2 -7 37 -2 46 7 9 9 33 -34 26 -47
-4 -6 -3 -8 4 -4 6 3 14 -3 17 -15 6 -17 9 -18 16 -8 5 8 3 16 -4 21 -7 5 -8
8 -1 8 6 0 21 -12 33 -26 16 -18 26 -23 30 -15 5 7 12 3 21 -14 7 -14 20 -25
27 -25 8 0 11 -5 8 -10 -3 -6 0 -10 9 -10 8 0 29 -12 48 -27 18 -15 27 -20 20
-11 -8 9 -11 21 -8 27 3 5 0 12 -6 14 -10 4 -10 6 0 6 8 1 26 -11 41 -27 39
-40 80 -73 61 -48 -19 24 -23 51 -6 37 7 -6 15 -9 17 -6 6 6 62 -45 77 -70 11
-18 12 -17 6 8 -8 36 19 35 55 -2 24 -25 24 -25 16 -2 -9 30 15 24 31 -7 10
-19 11 -20 21 -3 12 19 -6 91 -29 118 -10 12 -4 17 14 14 5 0 8 5 9 11 0 7 4
3 10 -10 5 -13 6 -35 3 -48 -3 -13 -2 -30 4 -37 6 -6 12 -23 14 -37 3 -24 3
-24 36 8 53 52 67 39 18 -17 -21 -24 -21 -24 9 -6 17 10 39 27 50 36 11 10 29
18 40 18 38 1 63 7 79 20 8 7 21 9 27 5 8 -4 9 -3 5 4 -4 7 0 22 10 34 9 13
14 16 12 8 -15 -44 8 -49 36 -8 19 29 26 35 21 18 -7 -22 -6 -23 9 -11 10 9
16 10 16 2 0 -6 8 -3 18 7 11 9 17 20 15 25 -2 4 3 7 11 7 8 0 20 8 26 18 10
15 11 14 6 -6 -4 -23 -4 -23 15 -6 10 9 19 23 19 31 0 8 5 11 12 7 7 -5 9 -2
6 7 -6 15 16 42 26 32 3 -4 6 -16 6 -27 1 -20 1 -20 13 2 7 12 16 19 20 16 4
-4 8 6 8 22 1 17 3 22 6 12 7 -29 28 -20 43 18 12 29 15 32 21 17 5 -12 8 -6
8 20 1 36 14 50 24 25 3 -7 6 -2 7 12 2 19 5 14 15 -20 7 -25 14 -39 15 -32 1
6 4 17 5 22 1 6 4 20 5 33 2 21 2 21 10 -3 7 -22 8 -21 9 13 1 21 -3 36 -8 33
-4 -3 -6 7 -3 22 3 15 7 21 9 15 3 -7 9 -13 14 -13 4 0 6 8 3 18 -4 9 4 2 15
-17 23 -35 40 -37 21 -2 -8 15 -8 21 0 21 6 0 9 3 7 8 -3 4 1 30 8 57 10 35
14 43 15 25 2 -18 4 -20 7 -7 7 26 27 15 33 -19 5 -22 8 -13 13 36 4 36 12 67
17 68 6 2 10 18 10 35 0 24 3 28 10 17 14 -22 14 15 -1 41 -6 11 -9 25 -6 32
5 15 35 -46 44 -92 7 -36 7 -36 14 -6 10 44 10 67 0 61 -4 -3 -5 13 0 37 7 35
4 51 -16 92 -24 50 -24 50 2 20 15 -16 31 -30 37 -30 6 0 17 -25 23 -55 13
-55 13 -55 9 -8 -2 26 1 51 7 57 8 8 7 11 -2 11 -8 0 -10 7 -6 21 5 16 4 19
-6 14 -9 -6 -11 -3 -5 10 3 10 0 28 -9 41 -10 15 -11 25 -4 29 7 5 6 11 -2 21
-7 8 -7 14 -1 14 5 0 16 -10 25 -23 13 -19 17 -20 29 -8 10 11 10 12 0 6 -16
-8 -13 26 3 37 5 4 -2 11 -15 17 -14 5 -22 10 -18 10 4 1 3 12 -1 24 -9 22 -7
24 17 19 29 -5 26 0 -22 36 -16 12 -23 22 -16 22 8 0 4 10 -11 27 -24 27 -24
27 7 5 17 -12 34 -19 37 -15 4 3 9 -2 13 -11 3 -9 10 -16 15 -16 13 0 5 36
-12 57 -25 30 -59 93 -50 93 5 0 8 12 6 27 -3 26 -2 26 14 6 9 -12 32 -24 51
-27 33 -6 34 -6 12 7 -12 7 -20 16 -17 19 4 3 -2 9 -13 12 -19 6 -26 16 -32
41 -1 6 -6 18 -12 29 -8 14 -7 17 4 10 7 -4 5 2 -6 14 -10 12 -23 19 -27 16
-5 -3 -6 1 -3 9 3 8 -2 21 -10 30 -14 13 -14 16 0 21 8 3 13 2 10 -2 -2 -4 -1
-14 5 -22 7 -13 9 -13 9 -1 0 14 19 -4 48 -46 11 -16 11 -15 2 5 -6 13 -13 33
-15 44 -3 11 -11 28 -20 38 -17 19 -20 45 -4 34 6 -3 3 5 -6 20 -24 37 -15 41
28 11 35 -23 50 -22 26 2 -15 15 7 12 39 -5 31 -18 28 -1 -8 35 -19 20 -28 37
-24 47 4 11 2 15 -8 11 -8 -3 -21 2 -29 12 -13 17 -13 17 5 3 15 -11 20 -12
23 -2 3 6 12 12 21 13 14 0 14 2 2 6 -35 14 -53 40 -30 46 11 3 20 1 20 -4 0
-4 7 -6 15 -3 8 4 22 1 30 -6 8 -6 25 -13 39 -14 26 -3 26 -3 0 21 -14 13 -30
20 -36 17 -7 -4 -8 -2 -4 4 4 7 2 12 -4 12 -6 0 -9 4 -6 9 3 5 -4 12 -17 16
-37 13 11 18 61 7 24 -6 39 -6 36 -1 -3 5 -12 9 -20 9 -8 0 -14 5 -14 10 0 6
-8 10 -17 10 -10 1 -36 9 -58 20 -40 19 -40 19 -7 20 36 0 43 15 12 25 -28 9
-14 26 15 19 14 -3 33 0 46 9 21 15 20 16 -25 22 -36 6 -46 11 -42 22 3 8 6
17 6 19 0 2 10 4 23 5 18 0 8 11 -13 13 -22 1 -26 22 -6 34 14 9 15 12 4 8
-11 -3 -18 0 -18 8 0 8 10 16 21 19 17 5 20 11 15 31 -6 26 8 37 17 14 5 -12
7 3 10 86 1 13 -5 31 -12 40 -7 9 -10 16 -5 16 5 0 3 4 -5 9 -11 7 -12 13 -3
23 12 15 -29 31 -118 44 -25 3 -49 9 -55 12 -18 11 -55 11 -55 -1 0 -8 -3 -8
-12 1 -7 7 -26 12 -43 13 -25 0 -27 2 -10 8 16 7 11 10 -25 16 -40 7 -42 9
-20 16 24 7 23 7 -7 8 -53 2 -74 14 -38 22 18 5 4 6 -35 4 -48 -3 -60 -1 -45
6 23 11 51 49 36 49 -6 0 -13 -4 -16 -10 -3 -5 -17 -10 -30 -10 -13 0 -26 -4
-30 -9 -7 -12 -45 -10 -45 2 0 5 8 6 18 3 16 -6 16 -5 0 7 -10 8 -14 18 -10
22 4 5 1 5 -6 1 -7 -4 -10 -12 -7 -17 4 -5 -3 -9 -15 -9 -22 0 -80 -52 -80
-73 0 -7 -4 -6 -10 4 -12 20 -8 40 14 73 22 35 18 39 -11 10z m527 -1687 c0
-16 -18 3 -23 25 -6 22 -5 22 8 4 8 -11 15 -24 15 -29z"/></g>
<g transform="translate(0.000000,254.000000) scale(0.100000,-0.100000)" fill="#c06659" stroke="#c06659" stroke-width="1.5" stroke-linejoin="round" fill-rule="evenodd"><path d="M536 2454 c-3 -7 -17 -18 -32 -26 -40 -19 -42 -38 -5 -38 17 0 31 -4
31 -10 0 -5 -6 -10 -14 -10 -21 0 -30 -20 -17 -33 12 -12 8 -17 -65 -90 -107
-107 -123 -171 -18 -72 48 46 62 55 83 50 20 -4 28 -1 36 17 6 15 19 23 35 24
46 2 49 4 52 32 3 25 7 27 48 28 62 3 60 2 60 24 0 14 7 20 23 20 27 0 137
-102 137 -127 0 -26 -16 -47 -37 -49 -10 0 -30 -1 -45 -2 -21 -2 -28 -7 -28
-22 0 -40 113 -61 127 -24 3 8 16 14 28 14 26 0 46 21 27 28 -7 2 -12 23 -12
47 0 24 -4 47 -10 50 -5 3 -10 15 -10 26 0 12 -7 19 -19 19 -13 0 -20 10 -25
31 -5 26 -8 29 -21 19 -12 -10 -17 -6 -32 18 -15 24 -22 28 -36 21 -13 -8 -17
-6 -17 4 0 18 -27 30 -36 16 -4 -6 -13 -4 -25 7 -10 9 -25 14 -33 11 -9 -4
-18 -2 -21 4 -9 14 -123 8 -129 -7z"/><path d="M1775 2447 c-12 -10 -14 -16 -7 -21 20 -12 14 -22 -28 -51 -55 -38
-46 -67 10 -32 17 10 22 9 29 -1 10 -16 94 2 112 24 6 8 18 14 25 14 8 0 14 7
14 16 0 11 -6 15 -18 12 -12 -3 -24 2 -31 13 -8 14 -18 18 -36 13 -18 -4 -27
-1 -31 10 -7 20 -15 20 -39 3z"/><path d="M1671 2431 c-10 -10 -21 -25 -23 -32 -4 -12 -7 -12 -21 0 -20 16 -47
8 -47 -14 0 -8 -11 -20 -24 -25 -15 -5 -28 -22 -36 -47 -7 -21 -19 -45 -27
-54 -7 -9 -11 -23 -7 -32 3 -9 -1 -24 -10 -32 -27 -27 -10 -59 19 -35 10 9 19
8 38 -4 13 -9 37 -17 53 -18 36 -3 70 -43 65 -77 -2 -20 0 -23 11 -14 41 33
86 17 51 -18 -12 -12 -7 -39 8 -39 26 0 46 -36 32 -57 -13 -19 -11 -25 21 -58
33 -34 34 -37 16 -42 -21 -6 -27 -28 -10 -38 6 -3 10 -16 10 -29 0 -12 4 -26
9 -32 19 -20 23 -71 5 -78 -12 -5 -13 -10 -6 -19 6 -7 11 -22 11 -32 1 -48 3
-62 13 -87 14 -38 -13 -83 -45 -74 -11 3 -26 1 -33 -5 -9 -7 -17 -3 -28 13 -9
12 -16 18 -16 12 0 -5 5 -15 11 -21 8 -8 7 -17 -5 -34 -18 -27 -20 -39 -6 -39
6 0 10 7 10 15 0 19 26 20 37 2 14 -23 93 -49 109 -36 11 9 17 5 31 -20 10
-17 23 -31 30 -31 12 0 30 97 25 138 -4 31 3 28 28 -15 13 -22 24 -60 26 -88
2 -27 7 -63 10 -80 7 -30 7 -30 -31 3 -41 37 -55 33 -48 -14 7 -42 49 -94 62
-75 10 16 31 6 31 -15 0 -8 6 -14 14 -14 7 0 20 -7 27 -17 44 -52 110 -48 91
6 -9 25 -8 31 4 31 30 0 21 15 -78 121 -16 16 -28 38 -28 48 0 10 -9 25 -20
32 -12 8 -21 27 -22 44 -1 18 -18 52 -42 83 -32 44 -37 55 -25 63 11 8 9 14
-15 33 -16 13 -26 28 -22 34 3 5 -3 21 -14 35 -13 17 -20 43 -22 82 -2 42 -7
60 -21 70 -25 17 -4 30 23 13 11 -7 20 -16 20 -20 0 -21 40 -3 83 37 50 46 61
71 27 62 -25 -7 -25 3 1 54 21 38 24 40 55 34 44 -8 43 4 -5 38 -74 52 -127
30 -101 -41 18 -49 -30 -98 -79 -81 -32 11 -38 62 -9 80 9 6 7 10 -7 15 -11 4
-28 15 -38 26 -10 10 -29 18 -42 18 -25 0 -33 14 -15 25 15 9 2 25 -15 18 -11
-4 -13 -1 -9 11 3 9 13 16 21 16 9 0 22 8 29 18 12 14 15 15 23 3 8 -12 12
-12 25 -2 21 18 11 31 -25 31 -33 0 -75 32 -64 49 11 18 78 12 105 -9 27 -21
50 -26 50 -10 0 6 13 10 29 10 40 0 45 13 16 38 -15 13 -22 27 -18 40 10 39
-94 51 -150 18 -25 -14 -52 -26 -61 -26 -27 0 -57 -50 -50 -84 5 -25 4 -29 -7
-18 -7 6 -27 12 -44 12 -47 0 -67 19 -63 60 2 26 8 35 21 35 18 0 57 50 57 74
0 20 31 40 61 41 29 0 65 33 54 49 -10 17 -53 13 -74 -8z"/><path d="M160 2345 c-7 -8 -19 -15 -26 -15 -8 0 -14 -4 -14 -10 0 -22 53 -1
64 25 7 19 -8 19 -24 0z"/><path d="M2065 2340 c-3 -5 0 -13 9 -16 21 -8 61 -1 61 11 0 14 -62 19 -70 5z"/><path d="M2250 2290 c40 -34 52 -37 43 -12 -11 30 -25 42 -51 42 -26 0 -26 0
8 -30z"/><path d="M630 2292 c0 -4 14 -13 30 -19 17 -6 30 -19 30 -27 0 -14 -4 -15 -20
-6 -31 16 -120 -15 -120 -41 0 -13 21 -11 54 6 37 20 43 19 74 -6 26 -21 26
-22 4 -16 -21 5 -23 3 -18 -19 5 -20 3 -24 -14 -24 -17 0 -20 -4 -15 -20 9
-28 -22 -27 -52 2 -17 16 -22 18 -18 6 4 -9 2 -19 -4 -23 -15 -9 -14 -23 2
-22 37 1 57 -4 57 -16 0 -9 -11 -12 -35 -9 -21 3 -35 0 -35 -7 0 -6 -11 -11
-24 -11 -14 0 -27 -4 -30 -9 -9 -13 -95 -20 -132 -9 -27 7 -44 5 -75 -9 -46
-20 -33 -30 44 -32 41 -1 107 -25 118 -43 12 -18 0 -30 -23 -22 -25 8 -13 -19
32 -68 44 -48 34 -83 -12 -41 -10 9 -21 13 -26 9 -8 -8 16 -29 61 -52 25 -13
27 -13 27 5 0 10 7 24 15 31 20 17 29 -7 16 -43 -9 -24 -8 -27 9 -27 29 0 24
-12 -20 -44 -41 -31 -47 -40 -30 -51 16 -10 11 -41 -11 -70 -17 -21 -19 -29
-9 -35 15 -9 -20 -60 -55 -80 -11 -6 -29 -24 -40 -40 -11 -17 -26 -30 -33 -30
-20 0 -33 -44 -14 -51 12 -4 8 -12 -17 -37 -17 -18 -31 -42 -31 -54 0 -12 -12
-37 -26 -56 -24 -31 -25 -36 -10 -44 20 -11 21 -48 1 -48 -17 0 -20 -16 -5
-25 6 -3 10 -15 10 -26 0 -30 45 -43 76 -22 26 16 26 16 0 32 -31 19 -33 28
-7 36 10 3 29 15 42 26 13 12 43 37 66 56 24 19 40 39 37 44 -3 5 4 21 15 35
12 15 21 30 21 35 0 17 46 56 75 63 17 4 45 19 63 33 18 13 40 22 47 19 9 -3
15 1 15 9 0 8 -5 15 -11 15 -7 0 -5 10 5 25 21 33 20 56 -2 28 -38 -48 -103
-38 -98 15 2 15 -2 34 -7 44 -9 13 -7 22 7 37 14 15 17 30 13 55 -6 37 14 66
46 66 21 0 21 4 1 35 -9 14 -25 25 -35 25 -25 0 -24 14 3 32 28 19 18 48 -17
48 -34 0 -32 15 5 30 30 12 40 35 19 42 -6 2 0 14 14 28 14 13 23 29 21 35 -2
5 6 15 18 20 13 6 24 20 26 33 3 19 9 23 30 20 24 -3 27 0 27 25 -1 22 3 27
19 25 13 -2 22 4 24 15 2 10 -3 17 -13 17 -38 0 -65 31 -65 74 0 47 -4 53 -44
84 -28 22 -66 30 -66 14z m84 -188 c19 -7 21 -34 3 -34 -14 0 -37 20 -37 32 0
10 13 10 34 2z m-147 -79 c-7 -16 15 -64 33 -75 13 -8 -48 -40 -77 -40 -50 0
-46 87 6 115 34 18 44 19 38 0z m-73 -591 c-4 -22 -2 -45 7 -60 11 -21 10 -28
-9 -54 -12 -16 -22 -33 -22 -37 -1 -14 -51 -66 -57 -59 -3 3 -1 17 5 31 7 14
12 40 12 56 0 60 42 159 67 159 2 0 1 -16 -3 -36z m-87 -240 c2 -6 -8 -16 -22
-22 -15 -7 -24 -9 -22 -5 2 5 7 16 10 26 7 19 28 19 34 1z"/><path d="M101 2194 c-1 -18 7 -41 19 -54 11 -12 22 -31 25 -41 4 -11 10 -19
15 -19 20 0 18 19 -5 50 -14 19 -25 40 -25 47 0 7 -4 13 -9 13 -5 0 -12 8 -14
18 -3 9 -5 3 -6 -14z"/><path d="M1175 1932 c12 -84 26 -107 38 -60 5 17 9 19 20 9 12 -9 16 -8 21 5
9 22 8 24 -9 24 -8 0 -15 9 -15 19 0 12 -12 26 -31 35 -30 15 -30 15 -24 -32z"/><path d="M247 1852 c-16 -7 -16 -9 -2 -30 22 -30 37 -28 58 8 19 32 -5 41 -56
22z"/><path d="M1481 1691 c-9 -6 -14 -33 -15 -80 -2 -62 -6 -75 -29 -99 -17 -18
-27 -39 -27 -59 0 -20 -7 -35 -21 -44 -27 -19 14 -122 53 -132 28 -8 32 -3 19
21 -16 29 -3 33 40 11 21 -12 46 -19 55 -17 11 2 -4 13 -37 28 -30 14 -58 31
-62 38 -5 7 -12 10 -16 7 -5 -2 -11 12 -14 33 -8 44 26 103 74 130 30 18 40
36 14 26 -20 -8 -19 3 5 33 25 33 25 43 0 36 -19 -5 -20 -3 -9 20 12 27 39 44
39 26 0 -11 25 -39 34 -39 3 0 6 7 6 15 0 8 -5 15 -11 15 -6 0 -8 8 -5 18 7
21 -65 31 -93 13z"/><path d="M830 1680 c0 -5 -7 -10 -15 -10 -8 0 -15 -5 -15 -11 0 -5 4 -8 9 -4
6 3 15 -4 21 -15 14 -26 40 -27 33 -1 -7 28 13 35 42 14 31 -23 31 -33 2 -33
-33 0 -40 -10 -21 -31 9 -10 14 -23 12 -30 -2 -7 11 -26 29 -42 88 -77 77
-138 -37 -200 -18 -10 -30 -21 -26 -24 3 -4 25 4 47 16 49 28 75 16 43 -20
-19 -21 -19 -21 1 -18 18 4 65 62 65 81 0 5 -9 6 -20 3 -25 -8 -26 6 -1 27 26
22 10 93 -27 125 -28 24 -34 89 -9 105 22 15 -57 78 -98 78 -19 0 -35 -4 -35
-10z"/><path d="M2036 1653 c-11 -11 -7 -23 8 -23 8 0 24 -11 37 -25 27 -28 67 -33
76 -10 9 24 -26 56 -52 49 -13 -3 -32 -1 -43 5 -11 6 -22 7 -26 4z"/><path d="M1201 1636 c-13 -16 -7 -71 9 -81 13 -8 22 48 12 74 -7 20 -10 21
-21 7z"/><path d="M275 1614 c-20 -20 -15 -38 12 -42 14 -2 28 7 43 27 21 31 21 31 -9
31 -16 0 -37 -7 -46 -16z"/><path d="M763 1558 c-25 -33 -22 -36 18 -19 23 11 48 17 56 14 7 -3 13 0 13 6
0 15 -75 14 -87 -1z"/><path d="M1540 1560 c0 -5 15 -9 33 -8 19 1 48 -6 65 -15 19 -9 34 -11 38 -6
3 5 -10 16 -30 24 -40 17 -106 20 -106 5z"/><path d="M2030 1403 c1 -38 38 -71 55 -49 14 18 13 22 -7 43 -26 27 -48 30
-48 6z"/><path d="M731 1349 c-2 -30 68 -80 92 -67 22 12 22 12 2 17 -33 10 -83 40 -88
53 -4 9 -6 8 -6 -3z"/><path d="M1145 1201 c-3 -11 -15 -23 -26 -26 -33 -11 -21 -24 13 -14 48 13
114 11 153 -6 34 -14 35 -13 25 5 -26 48 -153 79 -165 41z"/><path d="M794 955 c-3 -8 3 -31 15 -50 12 -20 21 -43 21 -51 0 -22 17 -17 23
7 3 12 -1 32 -10 45 -9 15 -11 24 -4 24 17 0 13 27 -5 34 -24 9 -34 7 -40 -9z"/><path d="M1562 958 c-8 -8 -7 -15 6 -24 22 -17 32 -17 32 0 0 22 -24 38 -38
24z"/><path d="M1060 948 c0 -1 7 -27 14 -56 8 -28 11 -50 6 -47 -4 3 -15 -6 -24
-20 -16 -25 -16 -25 41 -19 59 5 87 19 77 36 -4 5 -17 8 -30 5 -14 -2 -21 0
-17 6 3 6 0 15 -8 21 -8 6 -19 24 -24 40 -8 23 -35 50 -35 34z"/><path d="M1290 885 c-14 -32 -25 -45 -40 -45 -33 0 -23 -18 18 -29 20 -6 40
-11 43 -11 12 0 18 43 9 59 -5 10 -3 23 6 36 18 24 18 35 -1 35 -9 0 -24 -20
-35 -45z"/><path d="M1553 868 c-18 -22 -33 -45 -33 -52 1 -15 70 64 70 81 0 18 -1 17
-37 -29z"/><path d="M1045 750 c-4 -6 -4 -23 0 -38 5 -20 8 -23 15 -11 8 11 13 12 30 2
11 -7 35 -13 54 -13 26 0 36 -5 41 -20 8 -26 22 -26 30 0 5 17 14 20 46 18 26
-1 43 3 49 12 7 11 12 12 21 3 14 -14 -21 -77 -53 -94 -59 -31 -157 -13 -196
36 -13 17 -22 22 -22 13 0 -58 130 -107 207 -77 49 18 117 138 97 170 -8 13
-127 -2 -146 -18 -14 -12 -20 -12 -40 -1 -13 7 -34 14 -48 15 -14 1 -37 5 -51
8 -16 4 -29 2 -34 -5z"/></g>
<g transform="translate(0.000000,254.000000) scale(0.100000,-0.100000)" fill="#f7d9bb" stroke="#f7d9bb" stroke-width="1.5" stroke-linejoin="round" fill-rule="evenodd"><path d="M593 2199 c-13 -5 -23 -15 -23 -24 0 -20 10 -19 39 4 27 21 17 33
-16 20z"/><path d="M1820 2181 c0 -12 2 -21 4 -21 2 0 12 -3 21 -6 13 -5 16 -2 13 17 -4
31 -38 39 -38 10z"/><path d="M297 1953 c-4 -3 -7 -14 -7 -24 0 -9 -5 -19 -12 -21 -6 -2 -8 -9 -4
-16 8 -14 36 -5 33 11 -1 8 11 11 31 10 29 -1 31 1 20 15 -24 31 -47 40 -61
25z"/><path d="M2272 1933 c4 -20 34 -24 61 -8 16 9 16 11 -5 17 -43 12 -60 9 -56
-9z"/><path d="M2104 1923 c-3 -11 -19 -24 -35 -30 -34 -13 -39 -47 -10 -63 15 -7
23 -6 35 6 20 20 21 38 1 30 -12 -4 -13 -2 -2 14 6 11 20 23 30 26 20 6 19 25
-2 32 -7 2 -15 -4 -17 -15z"/><path d="M129 1890 c-20 -17 -20 -19 -3 -9 26 15 68 4 44 -11 -17 -11 0 -13
24 -4 21 8 20 20 -1 28 -10 3 -23 8 -29 11 -6 3 -22 -4 -35 -15z"/><path d="M219 1865 c-1 -3 -2 -11 -3 -17 0 -7 -13 -15 -28 -18 -15 -3 -38 -14
-50 -25 -13 -11 -27 -18 -31 -17 -5 1 -6 -2 -3 -7 4 -5 1 -11 -6 -13 -12 -4
-3 -28 12 -28 5 0 15 6 22 13 20 21 58 28 58 11 0 -8 6 -14 12 -14 7 0 2 -7
-10 -16 -25 -17 -21 -34 10 -34 19 0 19 -1 -3 -20 -21 -17 -21 -19 -4 -14 30
10 65 45 65 66 0 21 39 25 70 6 15 -10 22 -10 32 0 9 9 8 12 -5 12 -23 0 -21
27 3 40 46 25 -4 46 -52 23 -25 -12 -66 -10 -91 4 -5 3 2 16 14 29 19 20 20
24 6 24 -9 0 -18 -2 -18 -5z"/><path d="M2030 1781 c0 -5 8 -12 18 -16 15 -6 15 -8 -5 -25 -38 -30 -30 -54
14 -47 20 4 39 10 42 14 3 5 19 14 35 21 39 17 18 42 -35 42 -22 0 -39 5 -39
10 0 6 -7 10 -15 10 -8 0 -15 -4 -15 -9z"/><path d="M2305 1750 c2 -26 8 -31 39 -34 27 -3 27 -3 -6 25 -38 34 -35 34 -33
9z"/><path d="M957 1715 c-18 -24 -17 -26 8 -50 14 -14 25 -30 25 -34 0 -17 34 -22
49 -7 13 14 13 17 -1 33 -9 10 -23 33 -32 51 -20 38 -25 39 -49 7z"/><path d="M1403 1698 c-19 -24 -22 -46 -9 -63 11 -16 15 -13 33 23 11 23 18 44
15 47 -9 9 -29 5 -39 -7z"/><path d="M396 1615 c-50 -54 -55 -65 -28 -65 30 1 70 38 52 50 -15 10 -6 22
24 33 5 2 7 10 4 18 -4 10 -19 0 -52 -36z"/><path d="M1992 1629 c-18 -7 -21 -13 -14 -25 5 -9 8 -24 6 -33 -5 -19 39 -53
59 -45 18 7 17 62 -3 92 -16 25 -16 24 -48 11z"/><path d="M2225 1314 c-8 -9 -15 -18 -15 -21 0 -4 3 -4 6 -1 3 4 19 2 35 -2 17
-5 29 -5 29 1 0 5 -5 9 -11 9 -5 0 -8 4 -5 9 10 16 -23 20 -39 5z"/><path d="M571 1290 c-13 -11 -24 -33 -26 -48 -1 -16 -5 -34 -9 -40 -4 -6 2
-28 13 -49 17 -35 25 -69 22 -100 -1 -18 -31 -16 -31 1 0 31 -96 11 -140 -29
-35 -32 -26 -48 16 -30 20 8 45 15 56 15 23 0 14 -20 -10 -20 -19 -1 -72 -44
-72 -59 0 -6 13 -8 33 -5 30 5 31 4 13 -10 -13 -10 -19 -31 -21 -65 -3 -51 -3
-51 36 -51 28 0 39 -4 39 -15 0 -8 -5 -15 -11 -15 -23 0 -3 -33 21 -35 52 -4
83 22 51 42 -12 8 -17 19 -14 31 4 18 -24 37 -49 33 -28 -4 27 61 65 77 33 14
53 7 37 -14 -9 -10 -8 -21 4 -45 9 -18 16 -48 16 -66 0 -27 5 -36 20 -40 29
-8 21 -33 -19 -60 -44 -30 -60 -18 -25 18 21 22 25 32 17 40 -12 12 -62 -34
-63 -57 0 -6 -9 -33 -21 -59 -26 -58 -14 -78 26 -46 32 24 50 19 32 -10 -12
-20 25 -65 44 -53 12 7 37 -31 37 -56 0 -43 14 -110 23 -110 5 0 9 4 9 9 0 5
9 11 20 14 12 3 20 14 20 26 0 31 -3 36 -22 34 -33 -5 -23 58 16 103 37 43 90
43 91 -1 0 -27 38 -75 59 -75 9 0 16 -6 16 -14 0 -8 9 -18 20 -21 11 -4 20
-15 20 -27 0 -17 2 -18 15 -8 23 19 39 -1 40 -47 0 -44 21 -55 35 -19 12 34
26 33 44 -2 32 -62 116 -85 138 -37 14 31 19 31 37 4 13 -22 30 -12 31 17 0
18 -48 23 -61 8 -16 -20 -43 -17 -65 7 -10 11 -26 18 -36 15 -13 -3 -23 5 -34
26 -12 23 -21 29 -41 26 -23 -3 -28 2 -35 30 -7 25 -14 32 -33 32 -20 0 -24 6
-27 33 -3 29 -6 32 -31 29 -24 -3 -28 0 -23 16 4 12 -5 34 -24 60 -17 23 -28
42 -25 42 3 0 1 9 -5 20 -6 11 -19 20 -29 20 -19 0 -51 30 -51 48 0 6 -9 17
-21 25 -13 10 -17 17 -9 22 7 4 -2 20 -25 43 -40 41 -42 50 -18 68 19 13 19
13 -42 62 -5 4 -19 6 -29 4 -17 -4 -17 -2 3 27 14 20 20 38 16 51 -5 15 -2 20
13 20 19 0 32 -11 82 -69 30 -35 59 -36 40 -1 -7 13 -7 21 0 25 5 3 10 14 10
24 0 12 7 17 23 17 17 -1 23 5 25 29 2 17 9 37 16 45 44 50 21 86 -34 55 -36
-21 -68 -18 -81 6 -12 24 -110 129 -118 129 -4 -1 -17 -10 -30 -20z m107 -599
c10 -6 7 -12 -12 -24 -47 -31 -79 -14 -34 17 26 18 28 19 46 7z m69 -66 c6
-20 -38 -56 -65 -53 -34 4 -38 22 -12 48 22 22 70 25 77 5z"/><path d="M1782 1298 c-7 -7 -12 -17 -12 -24 0 -6 -9 -18 -20 -25 -12 -8 -22
-27 -23 -44 -3 -45 -65 -63 -119 -34 -30 16 -55 -10 -38 -41 7 -13 10 -38 7
-56 -6 -35 19 -52 65 -45 15 2 17 -3 12 -28 -8 -41 2 -39 54 9 43 40 72 46 50
10 -10 -15 -9 -23 6 -39 18 -20 18 -22 3 -39 -10 -10 -17 -24 -17 -30 0 -6
-13 -26 -30 -44 -16 -18 -30 -36 -30 -41 0 -5 -11 -18 -25 -29 -20 -16 -23
-23 -15 -34 16 -18 6 -30 -29 -37 -20 -4 -32 -15 -39 -36 -6 -17 -20 -41 -31
-53 -12 -12 -21 -28 -21 -35 0 -7 -7 -21 -15 -30 -9 -10 -27 -32 -41 -50 -13
-17 -35 -33 -47 -35 -15 -2 -24 -13 -30 -40 -8 -33 -11 -36 -28 -27 -18 9 -39
-18 -39 -52 0 -12 -27 -12 -35 1 -10 17 -25 11 -25 -9 0 -10 8 -21 18 -25 9
-3 23 -9 30 -12 8 -4 18 8 27 30 13 30 21 37 55 42 35 6 39 10 42 38 2 25 8
32 30 34 15 2 34 11 40 21 7 10 22 20 33 22 14 3 20 13 22 34 4 56 39 95 58
65 8 -12 45 -33 45 -25 0 3 -12 17 -26 30 -27 25 -27 25 -3 44 27 22 42 19 57
-12 44 -94 43 -90 17 -113 -14 -12 -25 -32 -25 -46 0 -29 -24 -55 -35 -38 -10
16 -26 12 -24 -7 4 -32 -13 -95 -28 -100 -10 -4 -13 -18 -11 -46 3 -35 -1 -43
-21 -53 -27 -14 -55 -70 -46 -93 6 -14 9 -13 22 4 15 19 15 19 8 -5 -7 -22 -6
-23 9 -11 10 9 16 10 16 2 0 -6 8 -3 18 6 11 10 17 21 15 26 -2 4 3 7 11 7 8
0 20 8 26 18 10 15 11 14 6 -6 -4 -23 -4 -23 15 -6 10 9 19 23 19 31 0 8 4 12
8 9 5 -3 9 8 10 25 1 23 -3 29 -14 25 -9 -3 -18 -6 -20 -6 -3 0 -3 -4 0 -9 9
-13 -29 -42 -47 -35 -15 5 -14 10 3 45 11 21 20 47 20 59 0 13 7 20 20 20 12
0 26 12 35 30 8 16 26 40 40 54 33 33 40 68 22 105 -16 31 -3 58 14 30 6 -10
11 -5 19 16 11 28 12 29 25 11 17 -22 35 -13 28 14 -3 12 2 29 12 40 16 17 16
21 1 42 -21 30 -20 37 4 31 26 -7 25 -1 -5 47 -14 22 -25 43 -25 47 0 3 -7 15
-17 25 -9 10 -13 21 -10 25 9 8 47 -26 47 -42 0 -15 45 -57 52 -49 8 8 -22 62
-50 92 -27 28 -24 48 7 45 53 -6 97 -63 49 -63 -23 0 -23 0 2 -20 44 -34 92
-1 56 39 -23 25 -20 38 4 16 24 -22 55 -13 45 13 -4 9 -10 27 -12 38 -3 12
-17 27 -31 34 -15 7 -22 15 -15 17 7 2 23 -3 35 -11 30 -21 41 -20 29 3 -8 14
-7 18 2 17 23 -2 22 18 -1 30 -12 6 -33 21 -45 32 -12 11 -26 21 -32 22 -51 3
-83 35 -88 89 -3 35 -1 41 14 41 12 0 19 7 19 20 0 11 -6 20 -14 20 -8 0 -16
6 -19 14 -3 8 -20 21 -38 30 -38 19 -32 19 -47 4z m27 -144 c-23 -28 -60 -2
-43 29 29 51 49 59 52 22 2 -20 -2 -43 -9 -51z m-4 -334 c10 -11 16 -23 12
-26 -8 -8 -44 13 -51 31 -8 22 18 19 39 -5z m-23 -47 c13 -17 38 -68 38 -80 0
-3 -12 -3 -26 0 -18 3 -24 1 -20 -9 8 -21 -22 -46 -42 -35 -53 28 -61 65 -17
73 11 2 21 9 21 16 1 6 2 21 3 32 1 25 23 26 43 3z"/><path d="M2230 1174 c0 -9 -5 -12 -12 -8 -7 4 -8 3 -4 -5 4 -6 11 -9 16 -6 5
3 13 -3 19 -12 14 -26 23 -10 12 21 -11 28 -31 35 -31 10z"/><path d="M990 1138 c-12 -13 -28 -31 -37 -40 -9 -10 -18 -41 -21 -70 -3 -29
-9 -56 -14 -59 -18 -11 31 -99 55 -97 12 0 28 -1 36 -3 18 -5 27 29 12 44 -7
7 -15 6 -26 -3 -13 -11 -19 -10 -35 5 -24 22 -26 45 -3 45 15 0 14 2 -2 20
-16 18 -17 21 -1 44 9 14 16 32 16 40 0 19 29 48 41 41 5 -4 9 -16 9 -28 0
-14 3 -18 8 -10 10 16 3 93 -9 93 -5 0 -18 -10 -29 -22z"/><path d="M1373 1105 c1 -34 10 -45 22 -25 13 20 31 8 53 -36 12 -25 20 -49 16
-55 -3 -5 -1 -16 6 -23 8 -11 4 -20 -22 -39 -18 -14 -29 -29 -25 -33 41 -41
86 131 47 180 -60 77 -99 89 -97 31z"/><path d="M256 908 c4 -7 3 -8 -5 -4 -6 4 -18 2 -26 -4 -8 -6 -19 -9 -24 -6 -5
4 -12 2 -15 -3 -8 -13 26 -23 38 -11 5 5 18 10 27 10 9 0 19 7 23 15 3 9 0 15
-10 15 -9 0 -12 -5 -8 -12z"/><path d="M2142 751 c-11 -6 -11 -13 -3 -27 6 -11 15 -35 20 -54 8 -30 9 -31
11 -10 1 14 3 35 6 48 2 13 0 21 -5 18 -5 -3 -7 3 -4 14 6 21 -3 25 -25 11z"/><path d="M306 694 c-13 -33 -7 -45 13 -27 11 9 17 22 14 29 -7 19 -19 18 -27
-2z"/><path d="M1045 568 c-11 -12 7 -38 36 -51 8 -4 25 -14 38 -24 22 -16 23 -16
20 3 -3 11 -14 20 -27 22 -12 2 -22 8 -22 13 0 40 -24 60 -45 37z"/><path d="M389 483 c3 -21 6 -30 9 -20 2 9 8 17 13 17 15 0 10 27 -7 34 -9 3
-17 6 -18 6 -1 0 0 -17 3 -37z"/><path d="M805 321 c-3 -15 -5 -34 -3 -42 2 -10 -5 -13 -24 -11 -19 2 -28 -2
-28 -11 0 -31 -43 -28 -77 5 -19 19 -36 28 -41 22 -4 -5 -5 -8 -3 -7 9 6 32
-38 25 -49 -4 -7 -3 -8 4 -4 7 4 12 2 12 -5 0 -7 8 -9 21 -6 12 3 22 0 26 -9
6 -16 30 -19 35 -4 3 11 82 -23 93 -40 4 -6 11 -8 16 -5 5 4 9 1 9 -4 0 -14
27 -14 35 -1 3 6 -1 17 -9 26 -9 9 -14 20 -10 25 3 5 -8 27 -25 48 -20 25 -31
50 -31 70 0 39 -16 41 -25 2z"/></g>
<g transform="translate(0.000000,254.000000) scale(0.100000,-0.100000)" fill="#efb27b" stroke="#efb27b" stroke-width="1.5" stroke-linejoin="round" fill-rule="evenodd"><path d="M1436 2048 c-21 -32 -31 -78 -17 -78 6 0 11 -11 11 -25 0 -18 -5 -25
-19 -25 -15 0 -22 -10 -28 -42 -6 -32 -15 -46 -34 -55 -44 -21 -72 -89 -62
-148 10 -60 41 -71 58 -20 5 17 18 36 27 43 11 8 18 26 18 49 0 38 10 50 72
83 56 30 146 17 133 -19 -3 -7 2 -19 11 -25 14 -11 14 -13 0 -25 -9 -8 -16 -9
-16 -3 0 13 -29 24 -42 16 -5 -3 -2 -14 9 -26 17 -19 17 -20 -2 -34 -17 -13
-17 -14 -1 -14 10 0 29 -9 43 -19 13 -11 31 -17 39 -14 16 6 19 29 4 38 -16
10 -12 22 9 28 26 6 9 83 -20 92 -24 8 -24 17 1 33 27 17 25 30 -6 38 -18 5
-22 10 -15 17 6 6 11 24 11 40 0 27 2 28 42 25 34 -2 43 1 46 15 2 9 -2 17 -8
17 -6 0 -22 12 -37 26 -28 28 -44 24 -25 -6 17 -28 16 -28 -25 -37 -50 -10
-58 -10 -58 2 -3 63 -88 101 -119 53z"/><path d="M934 2040 c-12 -5 -25 -13 -28 -19 -4 -6 -13 -8 -21 -4 -10 3 -15 -2
-15 -16 0 -12 -6 -21 -15 -21 -24 0 -59 -40 -46 -53 16 -16 13 -27 -8 -27 -14
0 -20 -10 -25 -42 -4 -23 -13 -49 -21 -58 -28 -32 -29 -69 -2 -76 16 -3 27
-14 29 -27 6 -42 46 -34 50 10 2 28 8 39 23 42 43 8 67 32 48 47 -24 18 -41
17 -59 -1 -23 -23 -47 -20 -34 4 5 11 7 27 4 35 -7 19 20 22 59 7 36 -14 43
13 12 38 -30 23 -31 31 -6 31 11 0 28 -15 41 -35 12 -20 38 -44 59 -54 46 -25
105 -86 96 -101 -5 -8 -11 -6 -19 6 -7 9 -18 15 -26 12 -8 -2 -4 -14 15 -36
29 -35 32 -155 4 -188 -15 -18 -58 13 -59 41 -1 11 -6 29 -11 40 -7 14 -8 4
-4 -34 9 -106 56 -122 97 -34 11 24 24 40 29 37 17 -10 30 6 19 26 -8 14 -7
25 2 40 10 15 10 24 1 39 -10 16 -9 20 8 24 14 4 19 14 19 40 0 42 -19 60 -54
51 -29 -7 -38 18 -11 33 10 6 11 13 5 23 -8 12 -12 13 -19 1 -11 -18 -51 15
-51 43 0 11 -7 27 -16 37 -19 21 -11 39 17 39 27 0 24 14 -12 55 -33 37 -40
39 -75 25z"/><path d="M707 1994 c-11 -14 -16 -28 -13 -31 6 -6 56 38 56 50 0 16 -26 5 -43
-19z"/><path d="M2232 2008 c-18 -18 -15 -28 8 -28 13 0 20 7 20 20 0 23 -10 26 -28
8z"/><path d="M2217 1943 c-4 -3 -7 -19 -7 -34 0 -15 -4 -31 -10 -34 -6 -3 -6 -13
-1 -23 5 -9 18 -37 29 -61 19 -42 20 -43 32 -21 9 16 9 25 1 33 -6 6 -11 19
-11 29 0 10 -5 18 -11 18 -7 0 -9 10 -7 25 3 14 2 28 -2 30 -5 3 -6 14 -3 25
5 20 2 25 -10 13z"/><path d="M1426 1794 c-4 -9 -4 -19 -1 -23 8 -7 38 12 43 27 6 19 -35 14 -42
-4z"/><path d="M2161 1752 c-9 -16 -7 -24 5 -36 20 -20 19 -21 18 14 -1 39 -10 47
-23 22z"/><path d="M465 1719 c-9 -13 3 -79 14 -79 12 0 21 26 21 61 0 29 -22 41 -35 18z"/><path d="M1955 1710 c-11 -12 -27 -19 -37 -17 -10 3 -18 1 -18 -5 0 -26 24
-99 36 -109 17 -14 18 1 5 49 -9 30 -7 34 14 42 29 11 34 20 26 43 -6 17 -8
17 -26 -3z"/><path d="M2020 1680 c0 -17 34 -27 73 -23 23 3 37 11 37 19 0 17 -14 18 -40 2
-15 -10 -22 -10 -32 0 -14 14 -38 16 -38 2z"/><path d="M785 1640 c-3 -5 9 -13 27 -18 19 -5 34 -16 36 -26 3 -14 -1 -17 -17
-11 -13 4 -21 2 -21 -4 0 -6 13 -10 29 -9 16 1 36 -4 45 -11 14 -11 16 -11 16
3 0 28 -102 96 -115 76z"/><path d="M1583 1635 c-7 -8 -13 -18 -13 -22 0 -5 -14 -14 -31 -20 -43 -16 -28
-32 24 -26 42 6 76 23 44 23 -27 0 -20 20 13 34 17 7 27 15 23 19 -11 12 -47
7 -60 -8z"/><path d="M184 1618 c-4 -6 1 -17 11 -25 32 -23 43 -15 29 21 -7 19 -30 21 -40
4z"/><path d="M724 1620 c-12 -5 -27 -23 -33 -41 -11 -33 -11 -33 26 4 39 40 41 50
7 37z"/><path d="M1435 1609 c-2 -8 -8 -32 -13 -53 -10 -51 -34 -67 -61 -42 -21 19
-21 19 -21 -1 0 -24 41 -65 55 -55 15 11 45 68 45 86 0 9 6 25 12 36 10 15 10
22 1 31 -10 10 -14 9 -18 -2z"/><path d="M2100 1572 c0 -4 6 -14 12 -20 7 -7 13 -20 13 -30 0 -10 9 -18 23
-20 30 -4 28 10 -7 47 -29 31 -41 38 -41 23z"/><path d="M290 1562 c0 -5 -12 -15 -27 -22 -36 -18 -62 -50 -56 -68 4 -8 8 -10
12 -4 3 6 15 12 26 14 37 6 88 88 55 88 -5 0 -10 -4 -10 -8z"/><path d="M385 1497 c-60 -58 -64 -87 -5 -35 19 16 45 37 57 46 16 12 20 21 14
31 -7 10 -22 1 -66 -42z"/><path d="M720 1540 c-8 -5 -22 -7 -30 -5 -16 5 -45 -51 -31 -59 8 -5 38 19 65
52 21 24 20 27 -4 12z"/><path d="M1743 1528 c5 -31 4 -32 -24 -18 -24 14 -24 2 1 -29 37 -44 63 4 30
56 -10 16 -11 15 -7 -9z"/><path d="M1082 1450 c-18 -33 -30 -65 -27 -70 10 -16 34 -11 45 10 6 12 16 17
26 13 9 -3 20 0 24 8 7 11 13 11 35 -1 19 -10 28 -11 37 -2 17 17 36 15 40 -3
6 -31 48 12 48 49 0 64 -70 62 -100 -2 -5 -13 -15 -20 -20 -17 -6 4 -8 10 -5
15 8 12 -34 60 -53 60 -10 0 -30 -24 -50 -60z"/><path d="M2060 1459 c15 -27 43 -46 47 -31 7 18 33 14 33 -5 1 -29 34 -65 53
-57 23 8 22 27 -3 49 -11 10 -17 22 -14 27 14 22 -20 39 -72 36 -44 -3 -51 -5
-44 -19z"/><path d="M1316 1404 c-21 -20 -20 -31 2 -43 11 -7 13 -13 6 -18 -19 -15 -39
-76 -26 -81 24 -8 42 -34 42 -62 0 -26 3 -28 48 -32 54 -5 59 -3 44 14 -42 52
-73 130 -63 160 13 38 14 31 -8 56 -22 26 -25 27 -45 6z"/><path d="M1100 1352 c-39 -18 -70 -46 -70 -63 0 -19 -3 -27 -34 -85 -16 -31
-16 -32 9 -38 40 -10 77 3 70 25 -4 10 1 29 9 41 9 12 16 32 16 44 0 12 7 27
15 34 15 13 21 51 8 49 -5 0 -15 -3 -23 -7z"/><path d="M1820 1335 c7 -8 17 -15 23 -15 6 0 19 -7 29 -17 10 -9 21 -14 24
-10 6 6 -65 57 -80 57 -4 0 -3 -7 4 -15z"/><path d="M907 1307 c-27 -17 -34 -26 -27 -37 6 -10 4 -20 -7 -32 -15 -17 -15
-18 5 -18 11 0 22 -5 24 -12 2 -6 14 9 26 34 12 26 26 49 32 53 14 9 13 22 -4
28 -7 3 -30 -4 -49 -16z"/><path d="M528 1298 c-28 -44 -29 -68 -3 -56 26 12 38 44 26 66 -6 11 -11 9
-23 -10z"/><path d="M1467 1306 c-3 -8 2 -25 12 -38 10 -13 21 -47 24 -76 7 -63 16 -81
29 -58 5 10 5 23 -2 35 -15 28 -13 41 8 49 29 11 10 67 -30 86 -38 19 -35 19
-41 2z"/><path d="M1681 1255 c-28 -29 -39 -45 -29 -45 20 0 90 69 82 81 -7 12 -3 15
-53 -36z"/><path d="M187 1272 c-21 -23 -22 -38 -1 -46 10 -4 22 1 30 11 12 16 13 16 14
2 0 -20 27 -33 36 -18 10 16 -5 59 -20 59 -8 0 -21 2 -28 5 -8 3 -22 -3 -31
-13z"/><path d="M700 1271 c0 -13 59 -71 71 -71 19 0 7 18 -31 49 -22 17 -40 27 -40
22z"/><path d="M474 1198 c-3 -4 -4 -21 -2 -36 3 -24 -2 -28 -39 -40 -38 -12 -43
-18 -43 -43 0 -31 19 -39 39 -16 6 8 29 19 51 26 27 8 45 21 52 37 13 29 4 42
-17 24 -9 -7 -19 -10 -23 -6 -4 4 3 16 16 26 12 10 22 20 22 23 0 9 -51 14
-56 5z"/><path d="M1923 1185 c-20 -22 29 -68 63 -58 30 8 30 8 -11 39 -30 23 -44 28
-52 19z"/><path d="M883 1158 c-6 -7 -14 -35 -18 -63 -5 -43 -4 -47 7 -30 33 52 43 132
11 93z"/><path d="M1512 1098 c-17 -17 -15 -48 3 -48 20 0 29 24 18 44 -7 13 -12 13
-21 4z"/><path d="M2038 1079 c-29 -17 6 -84 37 -72 21 8 18 21 -6 28 -16 5 -19 12 -15
31 7 27 7 27 -16 13z"/><path d="M299 983 c-55 -60 -57 -65 -12 -61 33 3 38 0 41 -19 4 -28 31 -38 51
-18 15 15 14 17 -1 29 -11 8 -14 17 -7 27 15 24 10 31 -15 25 -30 -7 -41 7
-21 27 8 9 15 18 15 21 0 15 -19 3 -51 -31z"/><path d="M626 975 c-4 -10 1 -15 15 -15 11 0 22 -7 25 -15 7 -17 40 -20 49 -5
3 5 0 18 -7 30 -15 24 -73 28 -82 5z"/><path d="M1701 946 c-1 -13 -6 -17 -21 -13 -27 7 -75 -53 -67 -85 5 -16 -5
-33 -38 -69 -39 -41 -59 -89 -39 -89 12 0 66 65 79 96 8 17 21 36 29 44 9 7
16 21 16 30 0 10 12 32 26 49 14 17 23 37 21 43 -3 8 -6 5 -6 -6z"/><path d="M2039 947 c7 -9 11 -24 7 -32 -3 -10 1 -15 12 -16 9 0 12 -3 5 -5 -7
-3 -9 -18 -6 -41 4 -22 2 -38 -6 -42 -9 -6 -5 -16 13 -38 41 -49 24 -64 -19
-18 -23 26 -23 26 -30 -7 -5 -21 -4 -33 4 -36 11 -4 41 -65 41 -84 0 -5 -5 -6
-10 -3 -6 3 -22 -3 -36 -14 -28 -22 -44 -20 -44 6 0 14 -3 14 -20 -2 -14 -12
-18 -25 -14 -41 5 -18 2 -24 -10 -24 -9 0 -16 8 -16 18 0 9 -5 24 -11 32 -8
11 -9 6 -5 -22 5 -43 -15 -53 -34 -18 -21 39 -33 23 -26 -34 6 -50 -10 -93
-22 -58 -7 23 -23 12 -21 -15 4 -54 -10 -74 -45 -68 -31 6 -31 6 -31 -47 0
-53 0 -53 33 -56 24 -2 32 1 32 12 0 10 9 16 26 16 21 0 24 4 19 20 -5 14 -2
20 10 20 9 0 22 13 28 30 7 18 17 28 24 26 7 -3 13 -1 13 4 0 5 8 17 19 27 10
10 21 30 25 45 3 15 15 30 26 33 11 3 20 13 20 21 0 8 6 14 14 14 7 0 16 10
19 21 4 16 11 20 26 16 15 -4 21 0 21 12 0 9 5 22 11 28 8 8 8 17 -1 32 -8 17
-8 21 2 19 8 -2 16 17 23 52 8 40 16 56 29 58 13 3 17 10 13 28 -2 13 0 21 4
18 5 -3 9 -2 9 3 0 14 -14 30 -37 42 -25 13 -32 44 -9 35 8 -3 16 -1 19 3 11
18 -11 33 -59 40 -45 6 -48 5 -35 -10z"/><path d="M2180 930 c0 -11 -7 -20 -15 -20 -8 0 -15 -6 -15 -13 0 -8 12 -14 29
-14 32 0 45 22 29 51 -12 22 -28 20 -28 -4z"/><path d="M728 903 c-29 -7 -22 -51 13 -82 16 -15 45 -50 62 -76 18 -27 38 -50
45 -53 20 -6 14 37 -8 55 -11 10 -20 22 -20 28 0 5 -18 26 -40 45 -42 37 -50
57 -25 66 36 14 13 28 -27 17z"/><path d="M234 776 c-18 -14 -18 -15 0 -22 11 -4 21 -2 27 7 19 31 5 38 -27 15z"/><path d="M403 756 c-20 -24 -54 -97 -50 -109 2 -7 0 -22 -4 -35 -13 -33 16
-40 47 -12 31 30 32 67 2 73 -22 3 -22 4 -3 12 27 11 35 25 35 58 0 29 -8 34
-27 13z"/><path d="M1953 732 c-20 -27 -20 -27 4 -45 30 -23 44 -14 34 21 -4 15 -6 33
-4 40 8 22 -13 13 -34 -16z"/><path d="M465 711 c-13 -21 -18 -111 -6 -111 6 0 11 -7 11 -16 0 -14 -3 -14
-15 -4 -12 10 -18 10 -30 0 -8 -6 -18 -9 -24 -6 -10 7 -23 -19 -14 -28 4 -3
17 -6 30 -6 17 0 23 -5 21 -17 -5 -26 27 -27 39 -1 34 75 40 190 10 196 -8 2
-18 -2 -22 -7z"/><path d="M524 512 c-6 -4 -13 -31 -16 -60 -6 -64 12 -82 52 -50 48 39 14 144
-36 110z"/><path d="M599 409 c-10 -20 -14 -52 -10 -96 2 -20 26 -5 37 25 24 57 0 120
-27 71z"/><path d="M680 360 c-8 -12 -15 -25 -14 -30 1 -6 2 -19 3 -30 4 -54 41 -13 41
46 0 39 -9 43 -30 14z"/></g>
<g transform="translate(0.000000,254.000000) scale(0.100000,-0.100000)" fill="#d2996a" stroke="#d2996a" stroke-width="1.5" stroke-linejoin="round" fill-rule="evenodd"><path d="M820 2423 c0 -23 32 -54 45 -43 15 12 9 44 -6 34 -6 -3 -16 0 -24 6
-8 7 -15 8 -15 3z"/><path d="M617 2277 c-7 -19 3 -36 18 -31 7 3 23 0 35 -6 19 -10 21 -9 18 6 -4
23 -64 49 -71 31z"/><path d="M538 2245 c-6 -14 -17 -25 -25 -25 -7 0 -13 -3 -13 -7 0 -5 -3 -18
-6 -31 -6 -21 -5 -21 20 -9 31 17 66 59 66 81 0 25 -29 19 -42 -9z"/><path d="M620 2211 c0 -5 5 -11 11 -13 34 -11 -12 -48 -51 -42 -25 4 -40 3
-40 -4 0 -11 72 -21 107 -14 18 3 22 9 17 27 -5 21 -3 23 18 18 22 -6 22 -5
-4 16 -27 22 -58 28 -58 12z"/><path d="M1745 2209 c-8 -12 28 -49 47 -49 8 1 7 5 -5 14 -10 8 -15 20 -11 30
7 18 -20 23 -31 5z"/><path d="M938 2162 c-29 -4 -46 -31 -26 -44 19 -11 38 -10 38 3 0 6 7 9 15 5
16 -6 18 0 7 24 -4 9 -17 14 -34 12z"/><path d="M1488 2150 c-7 -11 -19 -20 -26 -20 -7 0 -11 -4 -8 -9 7 -11 61 -8
59 4 -1 6 3 15 8 21 9 11 2 24 -13 24 -4 0 -13 -9 -20 -20z"/><path d="M1225 2125 c-16 -7 -33 -11 -37 -9 -4 3 -18 -4 -30 -15 -12 -12 -30
-21 -40 -21 -10 0 -18 -1 -18 -2 1 -2 9 -38 19 -81 17 -70 17 -78 3 -86 -14
-8 -10 -16 23 -54 42 -48 55 -55 55 -34 0 9 9 12 28 9 41 -6 86 43 57 64 -17
13 -20 12 -30 -6 -9 -16 -13 -18 -23 -8 -10 10 -14 8 -18 -10 -13 -47 -27 -25
-39 60 -6 47 -6 47 24 32 19 -10 31 -23 31 -35 0 -14 5 -19 18 -17 10 2 16 11
14 23 -2 11 -3 31 -2 45 2 102 1 160 -2 159 -2 0 -16 -7 -33 -14z"/><path d="M1736 2094 c-4 -11 -2 -15 8 -11 20 8 28 -4 14 -20 -15 -18 -9 -22
41 -25 28 -2 45 1 48 10 3 8 -6 12 -25 12 -24 0 -31 5 -34 23 -4 27 -42 36
-52 11z"/><path d="M1870 2085 c0 -16 6 -25 15 -25 16 0 19 9 9 34 -9 25 -24 19 -24 -9z"/><path d="M1696 2046 c-9 -14 -12 -27 -7 -30 10 -7 34 19 37 40 3 22 -12 16
-30 -10z"/><path d="M2214 2015 c-4 -8 -4 -24 -1 -34 3 -13 0 -18 -8 -14 -8 2 -22 0 -34
-6 -15 -9 -23 -7 -36 5 -37 37 -111 28 -134 -17 -26 -49 -26 -59 -1 -52 14 4
20 0 20 -11 0 -20 16 -21 24 -1 3 8 -2 18 -11 23 -20 12 16 52 46 52 26 0 69
-37 55 -47 -16 -11 -11 -44 9 -73 17 -25 17 -25 -8 -28 -33 -4 -33 -33 0 -49
14 -6 27 -7 30 -3 3 5 19 4 36 -2 49 -17 49 -11 -2 94 -5 10 -4 20 1 23 6 3
10 19 10 35 0 16 5 32 11 36 6 3 8 17 5 29 -3 13 -2 27 4 30 5 3 10 10 10 16
0 15 -20 10 -26 -6z"/><path d="M223 1976 c4 -10 7 -26 7 -36 0 -11 10 -24 21 -31 20 -10 21 -9 15
15 -7 30 25 51 56 35 25 -14 48 -11 48 6 0 9 -9 15 -22 15 -13 0 -47 3 -77 7
-49 6 -54 4 -48 -11z"/><path d="M398 1963 c6 -2 12 -11 12 -18 0 -7 -6 -15 -12 -18 -10 -3 -8 -9 5
-24 21 -24 22 -43 3 -68 -10 -14 -11 -25 -5 -38 6 -9 7 -22 3 -28 -3 -6 2 -19
12 -30 17 -19 14 -33 -9 -35 -7 0 -20 -2 -29 -2 -10 -1 -18 -7 -18 -12 0 -33
97 -21 102 13 5 36 38 35 38 -2 0 -37 6 -38 43 -6 32 29 34 35 7 35 -17 0 -18
3 -9 27 13 36 4 60 -16 43 -8 -7 -15 -21 -15 -31 0 -18 -2 -18 -27 -5 -45 23
-69 44 -61 52 5 4 16 0 26 -9 46 -42 56 -7 12 41 -45 49 -57 76 -32 68 22 -7
35 4 24 20 -8 13 -47 34 -59 33 -4 0 -2 -3 5 -6z"/><path d="M1725 1954 c-17 -13 -18 -16 -4 -30 14 -14 17 -13 32 9 20 30 2 43
-28 21z"/><path d="M651 1928 c-12 -12 -17 -24 -11 -26 20 -7 9 -30 -20 -42 -37 -15 -39
-30 -5 -30 35 0 45 -29 17 -48 -27 -18 -28 -32 -3 -32 11 0 23 -5 26 -10 5 -8
11 -8 20 0 21 18 25 49 7 60 -15 9 -15 12 6 26 12 9 22 21 22 27 0 5 12 25 26
44 25 33 22 42 -16 41 -8 0 -22 3 -31 6 -11 5 -24 -1 -38 -16z"/><path d="M1690 1862 c0 -15 5 -33 12 -40 9 -9 9 -15 1 -23 -13 -13 5 -69 24
-69 18 0 24 -16 15 -41 -9 -23 -9 -23 -14 -1 -4 12 -13 22 -21 22 -42 0 -25
-38 52 -122 42 -46 73 -51 52 -9 -5 9 -6 22 -4 29 3 7 -1 19 -7 27 -10 12 -9
16 4 21 18 7 14 58 -5 79 -5 5 -9 19 -9 31 0 13 -4 26 -10 29 -17 11 -11 32
10 38 35 9 -21 57 -65 57 -32 0 -35 -3 -35 -28z"/><path d="M305 1833 c-17 -25 -17 -26 1 -18 11 4 31 7 47 6 31 -2 33 2 11 23
-22 23 -39 20 -59 -11z"/><path d="M1960 1825 c-31 -32 -70 -47 -70 -27 0 4 -9 13 -20 20 -27 16 -47 5
-23 -13 10 -8 18 -22 19 -32 1 -10 2 -37 3 -60 1 -32 5 -43 17 -43 15 0 16 8
4 55 -12 47 21 70 35 25 14 -43 63 -31 89 21 19 39 19 39 2 39 -9 0 -12 8 -8
25 6 34 -8 31 -48 -10z"/><path d="M2120 1710 c-7 -14 -7 -20 0 -20 5 0 10 -7 10 -15 0 -10 -10 -15 -30
-15 -16 0 -30 -5 -30 -11 0 -7 11 -9 29 -6 21 4 34 1 46 -13 9 -10 23 -16 30
-14 7 3 27 -2 44 -10 79 -41 46 32 -47 107 -29 22 -39 22 -52 -3z"/><path d="M265 1702 c-56 -32 -57 -33 -45 -47 7 -8 9 -19 5 -25 -14 -22 6 -30
42 -15 19 8 51 15 70 15 23 0 33 4 30 13 -3 8 -21 11 -57 8 -46 -3 -52 -1 -46
14 3 9 6 19 6 21 0 2 8 4 18 4 10 0 27 7 38 15 29 22 -21 20 -61 -3z"/><path d="M830 1700 c0 -5 15 -10 34 -10 23 0 45 -9 66 -26 36 -31 49 -26 25 9
-20 31 -125 54 -125 27z"/><path d="M628 1673 c-10 -12 -14 -29 -11 -51 4 -23 0 -39 -13 -53 -14 -15 -16
-24 -8 -37 6 -9 10 -28 9 -42 -3 -31 11 -50 36 -50 23 0 24 8 5 29 -21 25 -27
77 -11 91 8 7 15 21 15 31 0 14 7 19 30 19 19 0 30 5 30 14 0 8 7 16 15 20 8
3 15 1 15 -4 0 -6 9 -10 20 -10 11 0 20 5 20 10 0 6 -6 10 -13 10 -8 0 -22 9
-32 20 -19 20 -19 20 -50 -10 -29 -28 -55 -39 -55 -22 0 4 9 13 20 20 11 7 20
17 20 22 0 16 -26 11 -42 -7z"/><path d="M1574 1679 c-8 -13 13 -29 39 -29 23 0 22 5 -7 24 -17 11 -27 12 -32
5z"/><path d="M1977 1683 c-12 -12 -7 -20 19 -32 33 -15 47 -6 31 19 -12 20 -37 26
-50 13z"/><path d="M466 1618 c-3 -15 0 -27 9 -34 8 -6 14 -13 12 -15 -1 -2 4 3 11 11
17 20 11 54 -9 58 -10 2 -19 -6 -23 -20z"/><path d="M948 1574 c-4 -32 13 -76 25 -64 8 8 -5 100 -13 100 -4 0 -10 -16
-12 -36z"/><path d="M1177 1582 c-7 -32 8 -72 26 -72 12 0 46 42 47 58 0 19 -28 14 -33
-5 -2 -13 -8 -8 -18 17 l-15 35 -7 -33z"/><path d="M2141 1584 c-24 -12 -24 -12 1 -37 14 -14 28 -32 31 -41 4 -9 11 -16
16 -16 15 0 23 18 11 25 -5 3 -10 16 -10 29 0 38 -21 55 -49 40z"/><path d="M240 1561 c-18 -35 -1 -43 35 -15 17 13 18 16 5 24 -22 14 -28 12
-40 -9z"/><path d="M1447 1570 c-18 -56 -17 -65 5 -43 16 16 18 25 10 39 -9 16 -12 16
-15 4z"/><path d="M1932 1538 c2 -6 17 -16 34 -21 16 -5 36 -16 45 -23 8 -8 21 -14 29
-14 7 0 -8 16 -33 35 -45 35 -82 46 -75 23z"/><path d="M289 1514 c-12 -13 -20 -27 -17 -30 8 -7 68 24 68 35 0 21 -30 18
-51 -5z"/><path d="M1670 1526 c0 -19 64 -96 73 -87 6 6 4 15 -7 27 -10 9 -24 27 -33 40
-13 21 -33 32 -33 20z"/><path d="M1794 1484 c-16 -33 -18 -44 -8 -44 22 0 48 48 38 69 -8 16 -12 12
-30 -25z"/><path d="M424 1498 c-16 -13 -40 -33 -54 -45 -14 -13 -44 -31 -67 -39 -24 -9
-43 -21 -43 -26 0 -4 -12 -26 -26 -48 -27 -41 -25 -60 6 -60 30 0 37 -46 12
-73 -22 -24 -38 -67 -25 -67 14 1 63 77 63 99 0 11 14 35 31 53 25 25 29 33
17 37 -20 8 -5 51 17 51 8 0 15 3 15 8 0 4 12 21 28 37 15 16 26 34 24 39 -2
5 7 19 19 32 28 30 20 31 -17 2z"/><path d="M1000 1473 c0 -4 4 -23 9 -41 8 -28 7 -36 -10 -50 -26 -22 -24 -35 4
-26 22 7 35 22 70 78 20 31 16 32 -35 11 -13 -5 -18 -2 -18 8 0 9 -4 19 -10
22 -5 3 -10 3 -10 -2z"/><path d="M1370 1435 c-28 -29 -20 -43 15 -27 15 7 25 20 25 32 0 27 -12 25
-40 -5z"/><path d="M2019 1430 c-21 -12 -13 -57 12 -71 11 -5 19 -19 19 -29 0 -24 37
-63 50 -55 6 4 15 -6 20 -22 6 -15 13 -35 16 -43 4 -12 9 -11 24 8 10 12 26
22 37 22 14 1 11 7 -16 30 -33 28 -33 29 -12 42 30 19 27 29 -25 72 -33 28
-45 34 -40 20 11 -39 -31 -73 -54 -44 -21 27 -27 60 -10 60 6 0 10 5 10 10 0
12 -10 12 -31 0z"/><path d="M654 1382 c-22 -18 -22 -18 8 -31 35 -16 38 -14 31 22 -6 32 -11 33
-39 9z"/><path d="M1710 1385 c0 -8 -4 -15 -10 -15 -5 0 -20 -16 -32 -35 -26 -38 -58
-57 -78 -45 -17 10 -52 0 -47 -14 2 -6 13 -12 25 -14 12 -2 22 -9 22 -17 0
-19 54 -24 76 -6 27 22 43 63 37 93 -6 29 11 45 31 29 18 -15 27 -2 15 20 -12
23 -39 25 -39 4z"/><path d="M1854 1349 c-4 -7 3 -20 19 -31 18 -13 27 -29 27 -48 0 -15 7 -33 15
-40 12 -10 14 -5 12 29 -1 25 -6 41 -13 41 -7 0 -15 9 -19 19 -9 28 -31 45
-41 30z"/><path d="M734 1295 c7 -56 55 -72 108 -34 37 27 23 49 -15 24 -24 -15 -26 -15
-52 10 -35 31 -44 32 -41 0z"/><path d="M1215 1310 c-4 -6 -16 -8 -27 -4 -14 4 -28 -2 -48 -22 -16 -16 -38
-38 -49 -48 -15 -13 -19 -28 -16 -50 2 -17 4 -35 4 -40 1 -6 10 -1 21 10 10
10 26 24 34 31 7 7 16 17 17 22 10 29 113 -1 154 -44 22 -23 46 -40 53 -38 17
7 15 43 -3 43 -10 0 -15 10 -15 30 0 16 -7 35 -16 42 -8 7 -31 28 -49 46 -35
34 -50 39 -60 22z"/><path d="M960 1275 c-18 -11 -25 -23 -26 -49 -1 -31 -13 -63 -61 -158 -7 -14
-13 -34 -13 -43 0 -13 -6 -16 -25 -11 -28 7 -32 -5 -9 -28 27 -27 64 -12 64
26 0 9 8 32 18 50 10 18 24 52 32 76 7 23 19 47 27 53 7 6 13 19 13 29 0 10 7
23 15 30 37 31 11 49 -35 25z"/><path d="M1426 1272 c-3 -5 4 -20 15 -33 17 -20 22 -21 29 -9 12 19 13 40 1
40 -5 0 -16 3 -24 6 -8 3 -18 1 -21 -4z"/><path d="M420 1153 c-25 -21 -51 -43 -58 -50 -7 -7 -16 -13 -20 -13 -27 -1
-36 -20 -17 -34 39 -30 87 -12 54 21 -12 12 24 43 51 43 28 0 48 23 41 48 -6
23 -7 23 -51 -15z"/><path d="M1990 1169 c0 -7 16 -27 35 -45 29 -27 34 -38 29 -59 -6 -25 1 -30
34 -26 7 1 12 -4 11 -11 -2 -20 12 -58 22 -58 5 0 9 -9 9 -19 0 -11 4 -22 10
-26 5 -3 8 -11 6 -18 -1 -7 -1 -9 1 -4 3 4 11 7 19 7 18 0 14 78 -5 89 -10 6
-10 10 -1 16 6 4 14 5 17 1 3 -3 11 0 18 7 14 14 16 77 2 77 -5 0 -7 11 -5 24
7 33 -3 46 -29 40 -19 -5 -20 -9 -11 -36 19 -53 -47 -57 -91 -5 -7 10 -19 17
-26 17 -7 0 -15 9 -18 20 -5 21 -27 28 -27 9z"/><path d="M229 1068 c-8 -21 -2 -65 10 -75 13 -9 14 -14 4 -24 -18 -18 -16 -39
2 -39 8 0 15 4 15 10 0 5 12 20 27 34 27 25 27 25 1 35 -16 6 -28 19 -30 32
-2 19 -25 39 -29 27z"/><path d="M1520 1050 c-12 -8 -12 -12 -2 -18 7 -5 13 -29 14 -55 2 -42 16 -67
19 -34 8 70 -7 122 -31 107z"/><path d="M1323 892 c-7 -11 -8 -24 -2 -33 4 -8 6 -24 2 -36 -5 -22 -2 -23 43
-23 l49 0 -39 26 c-33 23 -37 30 -32 55 6 33 -4 38 -21 11z"/><path d="M1485 875 c-16 -20 -31 -38 -34 -40 -2 -3 1 -5 8 -5 14 0 71 57 71
71 0 18 -16 8 -45 -26z"/><path d="M743 875 c-3 -10 9 -29 36 -54 22 -21 41 -42 41 -47 0 -5 9 -18 21
-28 14 -11 20 -26 17 -41 -4 -17 1 -26 18 -34 12 -5 34 -29 48 -53 24 -41 81
-86 93 -75 3 3 -4 21 -15 39 -11 18 -23 43 -26 55 -4 12 -23 39 -42 60 -46 52
-56 64 -77 97 -21 32 -14 49 8 20 14 -18 14 -17 4 8 -7 15 -16 25 -21 22 -17
-11 -56 6 -61 26 -6 24 -35 27 -44 5z"/><path d="M1585 880 c-3 -5 -1 -10 4 -10 22 0 5 -26 -69 -106 -11 -12 -20 -25
-20 -28 0 -4 -18 -24 -40 -45 -26 -25 -40 -47 -40 -63 0 -14 -9 -37 -20 -51
-24 -30 -25 -37 -6 -37 8 0 24 14 37 31 13 18 42 50 64 73 26 27 38 49 36 63
-1 15 12 38 42 70 37 39 44 53 40 76 -6 30 -18 43 -28 27z"/><path d="M265 833 c-16 -18 -31 -38 -33 -43 -6 -16 18 -11 24 5 4 8 17 15 30
15 16 0 24 6 24 18 0 37 -15 38 -45 5z"/><path d="M1463 751 c-65 -73 -70 -92 -8 -26 40 41 72 86 63 85 -2 0 -27 -27
-55 -59z"/><path d="M1110 465 c0 -24 3 -27 25 -23 14 3 30 -1 36 -8 15 -18 49 0 49 25 0
15 -7 19 -37 18 -21 -1 -46 3 -55 7 -15 7 -18 3 -18 -19z"/></g>
<g transform="translate(0.000000,254.000000) scale(0.100000,-0.100000)" fill="#eb9e6d" stroke="#eb9e6d" stroke-width="1.5" stroke-linejoin="round" fill-rule="evenodd"><path d="M973 2150 c5 -23 3 -28 -8 -23 -8 3 -15 0 -15 -7 0 -8 -7 -10 -22 -5
-49 16 -103 11 -109 -10 -3 -13 -12 -19 -26 -17 -17 2 -20 -1 -16 -22 4 -18 0
-28 -11 -32 -9 -3 -16 -11 -16 -18 -1 -22 -51 -61 -60 -46 -5 8 -13 11 -17 6
-11 -11 35 -46 52 -40 30 12 35 -8 10 -40 -14 -18 -25 -38 -25 -43 0 -6 -10
-18 -22 -27 -21 -14 -21 -17 -6 -26 18 -11 14 -42 -8 -61 -11 -9 -11 -15 -3
-25 12 -15 -12 -64 -31 -64 -6 0 -10 -4 -10 -10 0 -19 27 -10 55 20 28 29 29
30 49 11 38 -33 91 -32 57 2 -6 6 -11 19 -11 28 0 10 -11 20 -26 23 -28 7 -28
44 1 76 8 9 17 35 21 58 5 32 11 42 25 42 21 0 24 11 8 27 -13 13 22 53 46 53
9 0 15 9 15 21 0 12 5 19 13 16 6 -2 19 1 27 9 36 30 65 27 98 -11 37 -41 40
-55 13 -55 -28 0 -36 -18 -17 -39 9 -10 16 -26 16 -37 0 -28 40 -61 51 -43 7
12 11 11 19 -1 6 -10 5 -17 -5 -23 -27 -15 -18 -40 11 -33 35 9 54 -9 54 -51
0 -26 -5 -36 -19 -40 -17 -4 -18 -8 -8 -24 9 -15 9 -24 -1 -39 -9 -15 -10 -26
-2 -40 10 -20 -2 -36 -19 -26 -5 3 -17 -11 -26 -32 -10 -20 -27 -47 -38 -59
-11 -13 -18 -25 -15 -28 10 -11 77 25 83 45 3 11 15 20 25 20 20 0 63 -47 55
-60 -3 -5 -1 -11 5 -15 5 -3 15 4 20 17 30 64 100 66 100 2 0 -37 -42 -80 -48
-49 -4 18 -23 20 -40 3 -9 -9 -18 -8 -37 2 -21 11 -28 12 -34 1 -5 -7 -15 -11
-24 -9 -9 2 -23 -6 -31 -17 -13 -17 -18 -18 -35 -8 -19 12 -23 9 -46 -37 -14
-28 -21 -50 -15 -50 15 0 12 -26 -5 -40 -8 -7 -15 -19 -15 -28 0 -8 -7 -24
-17 -34 -9 -10 -13 -21 -9 -26 10 -9 56 48 56 70 0 9 5 20 10 23 6 3 10 16 10
29 0 23 38 58 78 70 27 9 31 -18 6 -45 -8 -9 -14 -28 -12 -41 3 -22 4 -22 35
11 21 22 37 32 48 28 9 -4 25 -1 36 6 17 10 23 9 40 -13 20 -26 49 -11 49 26
0 7 6 14 13 17 8 3 7 9 -6 19 -23 17 -13 46 19 54 40 10 50 31 26 57 -14 15
-23 42 -27 84 -6 46 -12 62 -25 66 -53 14 -23 170 39 200 18 9 28 24 34 55 6
32 13 42 28 42 14 0 19 7 19 25 0 14 -5 25 -11 25 -14 0 -4 46 17 78 31 48
116 10 119 -53 0 -12 8 -12 58 -2 41 9 42 10 25 36 -9 15 -8 22 5 36 21 20 12
38 -14 30 -17 -6 -19 -3 -13 19 6 26 -8 36 -22 15 -4 -8 -9 -8 -13 -1 -11 18
-66 19 -66 2 0 -16 -52 -23 -61 -9 -3 5 2 9 10 9 21 0 20 6 -4 32 -15 16 -22
19 -33 9 -9 -7 -61 -11 -153 -10 -235 2 -274 4 -274 11 0 5 -7 8 -16 8 -13 0
-15 -7 -11 -30z m288 -37 c0 -44 0 -101 -2 -125 -2 -44 8 -78 27 -92 22 -17
-13 -66 -47 -66 -9 0 -20 -7 -23 -16 -8 -21 -14 -17 -66 39 -37 41 -42 50 -28
58 14 8 14 16 -3 86 -10 43 -18 79 -19 81 0 1 8 2 18 2 10 0 28 9 40 21 12 11
26 18 30 15 4 -2 21 2 37 9 17 7 31 14 33 14 1 1 2 -11 3 -26z m-19 -533 c14
0 8 -24 -11 -47 -50 -60 -78 26 -33 97 17 25 17 25 26 -12 5 -21 13 -38 18
-38z"/><path d="M1706 1983 c-4 -4 -25 -6 -46 -4 -38 2 -40 1 -40 -26 0 -16 -5 -34
-11 -40 -7 -7 -3 -12 15 -17 31 -8 33 -21 6 -38 -25 -16 -25 -25 -1 -33 29 -9
46 -86 20 -92 -22 -6 -23 -7 -6 -33 10 -17 9 -22 -3 -31 -18 -12 20 -49 50
-49 33 0 86 -126 67 -157 -5 -8 -3 -13 7 -13 16 0 46 48 46 72 0 7 -22 36 -48
63 -73 77 -89 105 -68 120 18 13 21 42 6 65 -5 9 -5 19 2 28 8 9 8 16 0 24
-26 26 -14 68 18 68 17 0 30 5 30 10 0 6 -13 10 -30 10 -37 0 -38 12 -3 38 15
11 23 24 19 30 -8 14 -19 15 -30 5z"/><path d="M1886 1742 c-7 -12 22 -52 38 -52 34 0 38 28 7 44 -35 18 -38 19 -45
8z"/><path d="M650 1591 c0 -10 -7 -24 -15 -31 -27 -22 6 -110 41 -110 12 0 34 29
34 45 0 4 -11 0 -24 -8 -35 -23 -37 -12 -10 53 29 73 29 70 -1 70 -18 0 -25
-5 -25 -19z"/><path d="M455 1569 c-4 -10 -4 -27 -1 -37 4 -12 -1 -26 -14 -37 -23 -21 -26
-35 -7 -34 21 1 62 60 48 69 -10 6 -10 13 -2 28 8 15 7 21 -4 25 -8 4 -16 -2
-20 -14z"/><path d="M1950 1515 c0 -17 65 -85 78 -80 7 3 25 -8 39 -25 24 -29 43 -39 43
-22 0 16 -65 92 -79 92 -7 0 -19 6 -25 14 -12 15 -56 32 -56 21z"/><path d="M692 1349 c0 -99 118 -178 176 -116 33 35 13 56 -26 28 -61 -43 -103
-22 -108 56 -6 76 -42 103 -42 32z"/><path d="M1704 1355 c-4 -8 -3 -22 0 -31 3 -8 1 -25 -5 -36 -11 -20 -11 -20
15 -2 14 11 26 27 26 37 0 10 8 17 19 17 11 0 22 4 26 9 9 15 -14 24 -30 11
-9 -7 -15 -8 -20 0 -9 15 -25 12 -31 -5z"/><path d="M1366 1335 c-8 -30 79 -192 130 -244 10 -11 34 22 23 35 -5 7 -13 38
-16 69 -5 45 -23 90 -23 58 -1 -39 -46 -31 -54 10 -5 22 -41 97 -47 97 -4 0
-10 -11 -13 -25z"/><path d="M1550 1246 c0 -25 34 -41 78 -37 23 2 12 21 -13 21 -16 0 -25 6 -25
15 0 8 -9 15 -20 15 -11 0 -20 -6 -20 -14z"/><path d="M916 1218 c-19 -26 -21 -61 -4 -56 12 4 33 67 25 75 -3 2 -12 -6 -21
-19z"/><path d="M2070 1000 c0 -5 4 -10 9 -10 5 0 13 -9 16 -20 6 -20 35 -28 35 -10
0 6 -4 10 -9 10 -5 0 -11 9 -14 20 -5 20 -37 29 -37 10z"/><path d="M206 928 c-10 -40 -2 -46 28 -23 17 13 17 15 3 29 -20 21 -24 20 -31
-6z"/><path d="M271 901 c-22 -30 -28 -71 -12 -71 6 0 16 9 24 20 13 18 15 19 21 5
12 -32 6 -45 -20 -45 -20 0 -25 -4 -20 -16 3 -9 6 -18 6 -20 0 -11 29 -2 43
14 24 26 42 83 30 91 -6 3 -12 15 -14 26 -6 31 -35 29 -58 -4z"/><path d="M2118 913 c-24 -6 -23 -20 4 -34 17 -9 20 -9 15 4 -3 8 0 20 6 26 11
11 6 12 -25 4z"/><path d="M1057 696 c-24 -63 143 -129 221 -87 32 17 67 80 53 94 -9 9 -14 8
-21 -3 -6 -9 -23 -13 -49 -12 -32 2 -41 -1 -46 -18 -8 -26 -22 -26 -30 0 -5
15 -15 20 -45 20 -21 0 -42 5 -45 10 -9 14 -32 12 -38 -4z"/><path d="M1994 695 c3 -9 -1 -18 -9 -21 -16 -7 -21 -69 -6 -78 12 -8 57 29 63
52 8 29 -9 62 -33 62 -15 0 -19 -4 -15 -15z"/><path d="M435 690 c-4 -6 -15 -8 -25 -5 -10 3 -21 1 -25 -5 -3 -6 3 -10 14
-10 26 0 28 -35 4 -62 -22 -24 -3 -49 22 -28 12 10 18 10 30 0 12 -10 15 -10
15 4 0 9 -5 16 -11 16 -8 0 -10 16 -6 50 6 46 -3 64 -18 40z"/><path d="M1898 624 c-3 -2 0 -20 6 -39 12 -39 42 -51 32 -12 -3 12 -6 27 -6
33 0 12 -25 26 -32 18z"/></g>
<g transform="translate(0.000000,254.000000) scale(0.100000,-0.100000)" fill="#241a12" stroke="#241a12" stroke-width="1.5" stroke-linejoin="round" fill-rule="evenodd"><path d="M203 2359 c-20 -7 -40 -45 -30 -56 3 -2 14 0 25 6 11 6 29 8 39 5 15
-5 15 -4 3 5 -12 8 -11 11 9 19 14 5 20 11 15 14 -23 13 -41 15 -61 7z"/><path d="M393 2359 c2 -11 -5 -16 -55 -40 -18 -8 -28 -20 -28 -34 0 -11 -6
-27 -12 -34 -10 -11 -10 -13 0 -7 18 11 15 0 -14 -44 -15 -22 -34 -40 -42 -40
-13 0 -13 3 -4 12 18 18 14 27 -9 21 -26 -7 -11 29 25 59 23 19 15 24 -15 8
-15 -9 -19 -7 -19 5 0 13 -6 15 -32 10 -40 -9 -48 -13 -48 -27 0 -6 6 -6 15 2
9 7 19 10 23 6 4 -4 -4 -16 -18 -28 -14 -11 -19 -16 -11 -12 11 5 13 1 8 -21
-3 -18 1 -34 10 -43 9 -10 14 -33 13 -66 -3 -82 -2 -84 29 -91 37 -8 142 40
189 86 34 33 42 55 18 46 -8 -3 -17 -1 -20 6 -3 8 -5 6 -5 -3 -2 -30 -81 -82
-81 -54 0 13 -3 14 -15 4 -29 -24 -41 -4 -12 22 15 14 27 29 27 33 0 20 44 64
84 85 34 17 45 28 41 40 -3 10 0 20 8 23 8 3 17 14 19 25 4 15 2 19 -8 15 -18
-6 -19 23 -1 31 6 3 2 3 -10 1 -12 -3 -24 -1 -28 5 -8 13 -26 13 -22 -1z"/><path d="M1965 2320 c-4 -6 -10 -8 -15 -5 -5 3 -11 1 -14 -4 -4 -5 3 -12 14
-16 11 -3 20 -11 20 -16 0 -6 -9 -7 -20 -4 -24 8 -5 -33 51 -109 31 -43 38
-66 13 -46 -32 27 -47 -10 -19 -46 57 -73 228 -142 217 -87 -6 32 7 95 19 88
5 -4 9 6 8 22 0 15 4 42 9 60 12 38 -19 93 -42 73 -7 -5 -16 -6 -21 -2 -4 4
-3 -3 4 -15 15 -30 -4 -40 -32 -16 -21 18 -21 18 1 -11 30 -40 30 -89 0 -84
-15 2 -23 10 -23 23 0 11 -7 26 -15 32 -12 10 -12 14 -2 21 10 7 6 17 -17 41
-36 39 -38 45 -11 38 11 -3 20 -1 20 3 0 5 -9 12 -20 15 -11 3 -20 11 -20 16
0 5 -9 9 -20 9 -11 0 -20 7 -20 15 0 17 -55 21 -65 5z m150 -258 c25 -31 25
-34 5 -16 -14 12 -33 24 -42 27 -10 4 -18 11 -18 17 0 21 26 7 55 -28z"/><path d="M865 1660 c-3 -6 1 -13 9 -16 9 -3 13 -10 10 -15 -3 -5 6 -9 20 -9
32 0 33 6 4 31 -26 21 -34 23 -43 9z"/><path d="M1511 1642 c-11 -23 -10 -24 11 -18 13 3 29 6 36 6 20 0 14 14 -12
26 -21 10 -25 8 -35 -14z"/><path d="M781 1540 c-37 -17 -107 -120 -81 -120 6 0 10 -8 10 -17 1 -38 79
-103 123 -103 47 0 142 65 147 100 14 102 -102 183 -199 140z"/><path d="M1550 1548 c-19 -6 -40 -18 -48 -29 -7 -11 -17 -17 -22 -14 -20 12
-60 -68 -53 -107 3 -21 9 -35 14 -33 4 3 11 0 16 -7 11 -18 99 -58 127 -58 57
0 156 114 126 144 -6 6 -10 17 -10 26 0 45 -92 93 -150 78z"/><path d="M1115 1155 c-22 -8 -41 -15 -42 -15 -20 -2 -53 -110 -33 -110 6 0 10
-11 10 -24 0 -22 26 -61 73 -108 14 -15 15 -23 7 -41 -11 -21 -11 -21 5 -2 14
18 16 18 32 3 19 -20 3 -48 -27 -48 -28 0 -50 -11 -50 -24 0 -8 14 -11 40 -9
30 2 44 -2 57 -16 16 -19 16 -19 33 1 18 23 89 32 102 14 5 -7 8 -5 8 5 0 11
-12 19 -37 24 -45 8 -86 32 -78 45 3 5 11 7 18 4 14 -5 89 72 118 121 75 126
-73 238 -236 180z m97 -34 c13 -5 32 -12 43 -16 33 -10 -3 -25 -58 -23 -54 1
-69 14 -42 35 22 15 27 16 57 4z"/><path d="M1525 895 c-25 -43 -75 -77 -149 -99 -14 -5 -17 -13 -13 -33 12 -62
-41 -161 -96 -182 -121 -46 -241 53 -221 180 6 36 6 36 -37 43 -45 7 -129 71
-142 109 -4 9 -14 17 -22 17 -14 0 -14 -4 3 -27 10 -16 30 -54 45 -85 14 -31
32 -60 39 -65 18 -10 73 -83 81 -105 4 -10 14 -18 23 -18 10 0 14 -6 11 -14
-10 -24 81 -89 111 -79 6 3 12 0 12 -6 0 -60 175 35 220 119 14 25 46 69 72
98 27 30 48 60 48 67 0 7 3 15 8 17 8 3 52 88 52 101 0 20 -21 2 -45 -38z"/></g>
<g transform="translate(0.000000,254.000000) scale(0.100000,-0.100000)" fill="#fae9d5" stroke="#fae9d5" stroke-width="1.5" stroke-linejoin="round" fill-rule="evenodd"><path d="M308 1914 c-8 -7 3 -44 13 -44 36 0 63 22 45 36 -20 14 -48 18 -58 8z"/><path d="M1794 1218 c-30 -33 -35 -44 -28 -62 16 -42 57 -4 52 49 -3 37 -3 37
-24 13z"/><path d="M986 1095 c-9 -9 -16 -23 -16 -31 0 -8 -7 -26 -16 -40 -16 -23 -15
-26 1 -44 16 -18 17 -20 2 -20 -23 0 -21 -23 3 -45 38 -34 65 8 65 100 0 82
-12 107 -39 80z"/><path d="M1394 1078 c-12 -18 -13 -121 -2 -142 7 -13 6 -21 -3 -27 -11 -6 -11
-11 -2 -20 9 -9 21 -2 53 29 27 26 38 42 30 47 -6 4 -9 14 -6 21 14 37 -51
122 -70 92z"/><path d="M548 916 c-35 -15 -86 -79 -60 -75 25 4 53 -15 50 -35 -2 -15 6 -25
30 -38 48 -23 48 -25 18 -57 -35 -37 -19 -48 25 -18 40 27 48 52 19 60 -15 4
-20 13 -20 40 0 18 -7 48 -16 66 -12 23 -13 35 -5 45 21 25 1 31 -41 12z"/><path d="M1847 913 c-12 -11 -8 -21 17 -46 26 -26 76 -27 76 -2 0 23 -78 63
-93 48z"/><path d="M1810 862 c0 -14 39 -46 47 -39 3 4 -2 16 -12 27 -19 21 -35 26 -35
12z"/><path d="M1766 825 c7 -18 43 -39 51 -31 9 8 -27 46 -43 46 -8 0 -11 -6 -8
-15z"/><path d="M1739 770 c-1 -11 -2 -26 -3 -32 0 -7 -10 -14 -21 -16 -44 -8 -36
-45 17 -73 20 -11 50 14 42 35 -4 10 2 12 20 9 30 -6 30 -4 14 34 -25 59 -67
85 -69 43z"/><path d="M632 684 c-45 -31 -13 -48 34 -17 19 12 22 18 12 24 -18 12 -20 11
-46 -7z"/><path d="M1641 659 c-24 -19 -24 -19 3 -44 14 -13 26 -27 26 -30 0 -8 -37 13
-45 25 -19 30 -54 -9 -58 -65 -2 -21 -8 -31 -22 -34 -11 -2 -26 -12 -33 -22
-6 -10 -25 -19 -40 -21 -22 -2 -28 -9 -30 -34 -3 -28 -7 -32 -42 -38 -33 -5
-42 -12 -54 -41 -15 -35 -29 -44 -41 -25 -13 20 -33 9 -39 -22 -7 -33 -7 -33
-27 -9 -21 26 -21 26 -38 -6 -23 -45 -106 -22 -137 39 -18 35 -32 36 -44 2
-14 -36 -35 -25 -35 19 -1 46 -17 66 -40 47 -13 -10 -15 -9 -15 8 0 12 -9 23
-20 27 -11 3 -20 13 -20 21 0 8 -7 14 -16 14 -21 0 -59 48 -59 75 -1 44 -54
44 -91 1 -42 -49 -49 -107 -11 -103 23 2 27 -35 6 -57 -12 -13 -12 -83 1 -91
6 -3 10 -17 10 -31 0 -13 5 -24 10 -24 6 0 10 11 10 25 0 29 8 32 25 8 12 -16
40 -9 29 8 -8 13 5 69 17 69 5 0 9 -14 9 -31 0 -21 13 -47 40 -81 41 -52 48
-76 28 -96 -9 -9 -6 -16 12 -32 26 -22 56 -28 44 -7 -6 9 -5 9 8 0 8 -7 17
-11 20 -8 3 3 23 -13 46 -35 29 -30 39 -35 35 -20 -7 26 26 23 57 -5 20 -18
20 -18 14 -1 -10 26 18 16 32 -12 10 -19 11 -20 21 -3 12 19 -6 90 -28 118 -7
8 -4 15 9 22 23 12 35 -14 25 -59 -3 -15 0 -31 6 -34 6 -4 11 -16 11 -27 0
-10 5 -19 10 -19 6 0 10 4 10 8 0 10 60 46 66 40 2 -3 -6 -17 -18 -33 -25 -33
6 -21 49 18 12 11 29 17 37 14 9 -4 27 4 42 18 32 30 35 31 28 8 -3 -10 11 0
31 22 20 21 36 33 35 25 -7 -44 -1 -53 19 -29 13 16 16 28 9 39 -12 19 17 90
37 90 10 0 16 16 21 49 3 28 12 52 19 55 13 5 30 68 26 99 -2 19 14 23 24 7
11 -17 35 9 35 38 0 14 11 34 25 46 26 23 27 19 -17 113 -15 31 -30 34 -57 12z"/><path d="M670 620 c-26 -26 -22 -44 12 -48 27 -3 71 33 65 53 -7 20 -55 17
-77 -5z"/><path d="M767 180 c9 -16 22 -30 27 -30 5 0 30 -17 55 -37 25 -21 41 -31 34
-23 -6 8 -13 24 -15 35 -3 23 -28 44 -77 68 -45 22 -45 22 -24 -13z"/></g>
<g transform="translate(0.000000,254.000000) scale(0.100000,-0.100000)" fill="#f7c798" stroke="#f7c798" stroke-width="1.5" stroke-linejoin="round" fill-rule="evenodd"><path d="M140 2023 c0 -3 7 -13 15 -22 48 -52 55 -62 55 -70 0 -5 -8 -8 -17
-7 -30 2 -20 -29 9 -32 27 -3 37 42 15 64 -3 3 -3 13 0 21 4 9 -2 16 -16 20
-11 3 -21 12 -21 19 0 8 -9 14 -20 14 -11 0 -20 -3 -20 -7z"/><path d="M860 1904 c0 -3 11 -15 25 -25 31 -25 24 -52 -12 -38 -39 15 -66 12
-59 -7 3 -8 1 -24 -4 -35 -13 -24 11 -27 34 -4 18 18 35 19 59 1 19 -15 -5
-39 -48 -47 -11 -3 -21 -11 -23 -20 -6 -30 108 -36 132 -7 18 22 19 22 30 4 6
-10 21 -34 34 -54 20 -30 21 -37 9 -49 -16 -16 -47 -7 -47 14 0 8 -6 13 -12
10 -7 -2 -11 -11 -9 -18 2 -8 9 -32 15 -54 27 -99 72 -87 82 22 6 68 5 73 -21
105 -19 22 -23 34 -15 36 8 3 19 -3 26 -12 8 -12 14 -14 19 -6 9 15 -50 76
-96 101 -21 10 -47 34 -59 54 -18 30 -60 50 -60 29z"/><path d="M1475 1838 c-72 -38 -85 -53 -85 -90 0 -23 -6 -42 -18 -50 -43 -32
-49 -149 -10 -185 27 -24 50 -7 63 48 25 98 45 129 92 140 52 14 60 24 38 49
-9 10 -12 21 -7 24 13 8 42 -3 42 -16 0 -6 7 -5 16 3 14 12 14 14 0 25 -9 6
-14 18 -11 25 11 30 -79 50 -120 27z m-7 -40 c-5 -15 -35 -34 -43 -27 -3 4 -3
14 1 23 7 18 48 23 42 4z m-26 -93 c3 -3 -4 -24 -15 -47 -18 -36 -22 -39 -33
-23 -24 32 21 97 48 70z"/><path d="M2185 1749 c-10 -16 4 -59 19 -59 19 0 28 28 16 51 -12 21 -25 25
-35 8z"/><path d="M450 1658 c0 -18 -7 -29 -20 -33 -21 -7 -28 -25 -10 -25 20 0 9 -19
-23 -39 -19 -11 -46 -32 -61 -46 -15 -14 -38 -28 -51 -31 -14 -3 -25 -9 -25
-13 0 -4 -16 -24 -35 -46 -35 -38 -41 -62 -8 -33 10 9 24 13 31 11 15 -6 52
24 52 43 0 7 8 10 18 7 57 -14 184 179 143 220 -8 8 -11 4 -11 -15z"/><path d="M1939 1665 c-3 -2 -1 -28 5 -58 13 -73 96 -139 164 -130 44 6 54 16
26 27 -9 3 -14 12 -11 19 3 7 -4 23 -14 36 -23 28 -55 24 -52 -6 1 -12 -5 -24
-13 -27 -21 -8 -65 25 -60 45 2 9 -1 24 -6 33 -8 14 -5 19 11 23 28 7 26 17
-4 31 -28 13 -39 15 -46 7z"/><path d="M718 1588 c-57 -64 -28 -69 72 -13 14 8 33 12 43 9 18 -6 25 20 9 30
-40 25 -88 15 -124 -26z"/><path d="M1608 1619 c-29 -16 -21 -32 11 -26 26 5 31 2 42 -22 11 -24 64 -71
80 -71 17 0 -8 62 -36 93 -35 38 -64 46 -97 26z"/><path d="M2186 1361 c-8 -12 21 -41 41 -41 14 0 14 3 1 22 -17 25 -34 33 -42
19z"/><path d="M595 1344 c-41 -21 -47 -28 -39 -48 6 -16 8 -16 26 1 20 18 103 -52
137 -115 13 -25 44 -28 81 -7 56 32 78 -5 34 -56 -26 -30 -13 -79 21 -79 1 0
6 24 9 54 4 30 14 60 22 67 8 6 14 23 14 36 0 25 -48 28 -121 7 -20 -5 -79 50
-79 74 0 19 -50 82 -66 82 -5 0 -22 -7 -39 -16z"/><path d="M1767 1336 c-15 -12 -29 -31 -31 -43 -11 -56 -91 -97 -154 -80 -46
12 -66 3 -58 -26 4 -12 8 -46 10 -75 4 -59 20 -87 36 -62 13 20 12 57 -1 82
-16 29 10 55 39 39 54 -29 116 -11 119 34 1 17 11 36 23 44 11 7 20 19 20 26
0 39 81 30 97 -11 7 -19 33 -18 33 2 0 16 -37 53 -54 54 -6 0 -19 9 -30 19
-21 19 -21 19 -49 -3z"/><path d="M512 1235 c-29 -21 -28 -35 2 -35 29 0 36 8 27 33 -6 16 -8 16 -29 2z"/><path d="M1900 1227 c0 -9 -10 -17 -22 -19 -21 -3 -21 -4 -7 -18 13 -11 14
-19 5 -33 -8 -12 -8 -20 0 -25 6 -4 13 -15 17 -24 3 -9 22 -20 41 -23 19 -4
44 -18 57 -31 27 -29 43 -31 34 -5 -4 13 0 23 11 29 29 16 -15 56 -53 48 -24
-6 -32 -2 -51 24 -13 16 -18 30 -12 30 15 0 12 36 -5 50 -12 10 -15 10 -15 -3z"/><path d="M2190 1231 c0 -5 -10 -11 -22 -15 -23 -6 -23 -6 2 -26 44 -34 81 -16
53 26 -15 24 -33 32 -33 15z"/><path d="M500 1165 c-17 -20 -5 -32 15 -15 21 18 31 5 17 -24 -6 -15 -26 -29
-49 -36 -21 -7 -45 -18 -53 -25 -8 -8 -28 -17 -43 -21 -16 -3 -31 -14 -35 -23
-3 -9 -12 -22 -19 -29 -19 -19 -6 -33 23 -26 25 6 30 -1 15 -25 -7 -10 -4 -19
7 -28 16 -12 16 -14 -3 -31 -18 -14 -43 -63 -52 -97 -15 -57 -14 -65 5 -85 19
-21 52 -9 52 19 0 10 35 51 44 51 10 0 7 -49 -4 -71 -14 -25 -5 -24 31 2 40
28 54 20 53 -30 0 -22 2 -41 6 -41 8 0 30 46 30 64 0 7 9 21 20 31 29 26 25
38 -7 22 -36 -19 -77 -15 -81 6 -2 9 1 17 7 17 6 0 11 7 11 15 0 11 -11 15
-39 15 -39 0 -39 0 -36 51 2 34 8 55 21 65 18 14 17 15 -13 10 -20 -3 -33 -1
-33 5 0 15 53 58 72 59 24 0 33 20 10 20 -11 0 -36 -7 -56 -15 -42 -18 -51 -2
-16 30 44 40 140 60 140 29 0 -17 30 -19 31 -1 7 76 -40 150 -71 112z"/><path d="M970 1158 c0 -6 -7 -19 -16 -29 -9 -10 -14 -23 -12 -30 3 -9 8 -7 19
5 7 10 22 26 32 37 22 24 22 29 -3 29 -11 0 -20 -5 -20 -12z"/><path d="M1370 1156 c0 -7 13 -16 30 -19 19 -4 37 -19 52 -42 20 -30 48 -47
48 -29 0 19 -57 94 -75 98 -34 10 -55 7 -55 -8z"/><path d="M625 1030 c4 -12 1 -28 -6 -36 -6 -8 -9 -17 -5 -21 3 -3 7 -4 9 -2 1
2 12 18 24 35 23 34 21 44 -9 44 -15 0 -18 -5 -13 -20z"/><path d="M2030 980 c9 -16 70 -34 70 -21 -1 19 -22 34 -49 36 -25 1 -29 -1
-21 -15z"/><path d="M1974 975 c11 -8 23 -15 27 -15 4 0 9 -10 12 -22 2 -13 8 -31 12 -40
10 -26 -21 -35 -45 -13 -24 22 -27 9 -4 -16 34 -37 -7 -72 -52 -43 -31 21 -41
12 -21 -20 23 -35 8 -41 -25 -9 -38 36 -45 24 -14 -26 31 -49 32 -55 6 -48
-24 6 -25 -1 -4 -31 15 -21 15 -25 0 -41 -26 -29 -12 -111 19 -111 9 0 12 10
8 39 -6 43 8 59 30 36 12 -12 17 -12 26 -2 11 14 4 57 -10 57 -5 0 -9 9 -9 19
0 11 -4 23 -10 26 -5 3 -10 13 -10 22 0 14 2 14 19 -1 17 -16 19 -15 33 6 13
19 18 20 30 10 20 -16 28 -6 28 34 0 28 3 31 22 26 20 -5 21 -3 14 39 -4 24
-7 54 -7 66 1 23 -54 73 -80 73 -10 -1 -8 -5 5 -15z"/><path d="M1681 904 c-12 -15 -21 -34 -21 -44 0 -9 -9 -25 -20 -35 -11 -10 -20
-24 -20 -31 0 -7 -12 -27 -27 -45 l-27 -32 39 7 c49 9 62 20 46 40 -9 11 -7
18 14 34 14 11 25 24 25 30 0 5 11 20 25 33 30 29 31 45 6 59 -16 8 -23 5 -40
-16z"/><path d="M677 886 c-24 -18 -22 -27 18 -68 23 -23 32 -39 25 -43 -8 -5 -6 -11
5 -19 9 -6 21 -22 28 -35 17 -34 43 -49 58 -34 18 18 -6 67 -58 120 -24 25
-43 53 -43 63 0 25 -12 31 -33 16z"/><path d="M2172 873 c4 -22 38 -30 38 -10 0 8 -7 18 -16 21 -23 9 -26 8 -22
-11z"/><path d="M547 590 c-14 -11 -32 -17 -41 -14 -12 5 -16 0 -16 -19 0 -14 -4 -29
-10 -32 -16 -10 -12 -42 10 -77 20 -33 20 -33 20 13 0 51 16 67 51 49 20 -11
20 -12 22 -60 1 -31 -37 -71 -60 -63 -7 3 -13 -2 -13 -11 0 -19 40 -22 41 -3
0 6 4 2 9 -10 11 -27 33 -31 27 -5 -5 22 21 74 35 70 15 -5 18 -68 5 -90 -15
-23 39 -83 65 -73 19 7 32 35 18 35 -6 0 -10 -4 -10 -10 0 -18 -30 -11 -31 8
0 9 -2 46 -5 82 -2 36 -4 76 -5 90 -1 26 -26 63 -38 56 -19 -12 -56 33 -44 53
18 28 0 34 -30 11z"/><path d="M1800 584 c-8 -21 -13 -25 -19 -15 -17 28 -30 1 -14 -30 19 -38 11
-71 -28 -112 -32 -33 -27 -41 27 -46 15 -1 27 36 25 72 -2 27 14 38 21 15 12
-36 27 8 22 65 -8 74 -19 91 -34 51z"/><path d="M1955 504 c-17 -17 -17 -18 1 -25 26 -9 46 0 42 19 -4 23 -23 25 -43
6z"/><path d="M1916 435 c-20 -20 -21 -45 -2 -45 7 0 16 12 19 28 7 34 4 37 -17 17z"/><path d="M1696 365 c-3 -8 -15 -15 -26 -15 -14 0 -20 -7 -20 -21 0 -11 -5 -30
-11 -41 -16 -30 1 -38 41 -19 32 15 35 20 37 64 1 46 -9 62 -21 32z"/></g>
<g transform="translate(0.000000,254.000000) scale(0.100000,-0.100000)" fill="#e7c4a4" stroke="#e7c4a4" stroke-width="1.5" stroke-linejoin="round" fill-rule="evenodd"><path d="M477 2471 c-28 -6 -28 -6 3 -19 32 -15 60 -10 60 8 0 6 -4 8 -10 5
-5 -3 -10 -1 -10 4 0 12 -1 12 -43 2z"/><path d="M1776 2204 c-4 -10 1 -22 11 -30 23 -17 33 -17 33 0 0 42 -31 63 -44
30z"/><path d="M613 2183 c-26 -18 -30 -33 -8 -33 13 0 41 38 33 45 -2 1 -13 -4 -25
-12z"/><path d="M524 2180 c-29 -12 -40 -30 -17 -30 34 0 63 12 63 26 0 16 -15 17
-46 4z"/><path d="M1860 2165 c0 -8 9 -15 19 -15 10 0 21 7 25 15 4 11 -1 15 -19 15
-16 0 -25 -6 -25 -15z"/><path d="M1813 2107 c-27 -14 -31 -47 -5 -47 41 0 63 13 60 34 -3 24 -23 29
-55 13z"/><path d="M140 1990 c0 -5 -7 -10 -15 -10 -8 0 -15 -7 -15 -15 0 -10 10 -15 29
-15 33 0 44 11 35 34 -7 17 -34 22 -34 6z"/><path d="M370 1966 c0 -8 -5 -16 -12 -18 -8 -3 -6 -12 5 -29 15 -22 15 -28 3
-44 -11 -16 -11 -21 0 -33 20 -19 17 -40 -6 -52 -25 -13 -26 -40 -3 -40 13 0
9 -8 -15 -30 -18 -16 -41 -30 -52 -30 -15 0 -30 -18 -30 -37 0 -3 22 -3 50 0
62 7 68 -2 30 -43 -45 -48 -34 -95 17 -76 14 6 15 9 4 16 -15 9 45 93 74 104
29 11 14 23 -26 22 -47 -1 -61 14 -27 29 24 10 33 63 17 95 -4 9 -1 24 7 35
19 25 18 44 -3 68 -13 15 -15 21 -5 24 18 7 15 27 -8 41 -16 10 -20 10 -20 -2z"/><path d="M2232 1938 c2 -26 9 -43 18 -46 8 -3 12 -1 8 3 -4 5 -3 14 4 22 8 10
8 20 -2 38 -20 37 -32 30 -28 -17z"/><path d="M295 1960 c-4 -6 -10 -8 -15 -5 -12 8 -21 -10 -14 -29 8 -22 24 -20
24 2 0 10 5 23 12 30 7 7 9 12 6 12 -4 0 -10 -5 -13 -10z"/><path d="M2039 1939 c-20 -20 -20 -23 -5 -31 9 -5 14 -13 11 -19 -4 -5 6 -4
20 3 40 18 62 -24 29 -56 -18 -18 -54 -5 -54 19 0 28 -28 15 -32 -15 -3 -20 0
-30 9 -30 19 0 9 -28 -26 -72 -7 -10 -11 -24 -8 -33 8 -20 37 -19 37 1 0 9 10
24 23 34 20 17 20 19 5 25 -26 10 -22 25 8 25 14 0 23 -4 19 -10 -3 -5 3 -10
14 -10 14 0 21 6 21 19 0 11 9 26 20 34 18 12 19 16 5 27 -8 7 -12 17 -8 23 3
5 -2 16 -13 24 -15 11 -16 17 -7 32 22 35 -35 43 -68 10z"/><path d="M230 1909 c0 -13 -38 -49 -52 -49 -4 0 -8 -7 -8 -16 0 -10 7 -14 23
-12 12 2 22 10 22 18 0 8 8 16 19 18 13 3 16 0 11 -9 -6 -9 -3 -11 9 -6 10 4
26 7 37 7 11 0 19 7 19 16 0 10 -6 14 -15 11 -8 -4 -17 -2 -20 3 -11 18 -45
32 -45 19z"/><path d="M2263 1774 c-3 -9 -15 -20 -27 -25 -20 -9 -20 -9 2 -5 12 2 22 1 22
-4 0 -4 11 -5 24 -3 22 5 23 8 14 29 -13 28 -26 31 -35 8z"/><path d="M184 1642 c0 -14 6 -17 24 -14 27 5 24 26 -4 30 -14 2 -20 -3 -20
-16z"/><path d="M2047 1605 c10 -13 27 -25 37 -25 18 0 18 2 -4 25 -32 34 -58 34 -33
0z"/><path d="M148 1595 c-25 -33 -23 -36 12 -18 25 12 29 18 19 29 -14 17 -11 18
-31 -11z"/><path d="M2179 1603 c-8 -9 -9 -14 -3 -10 7 4 28 -4 48 -18 40 -27 49 -20 14
12 -36 32 -45 34 -59 16z"/><path d="M130 1219 c-25 -20 -25 -20 0 -13 14 4 33 7 43 6 15 -1 16 2 7 14
-16 18 -20 18 -50 -7z"/><path d="M1043 1163 c-14 -5 -18 -73 -5 -73 11 0 43 61 36 71 -6 10 -12 10
-31 2z"/><path d="M1370 1036 c0 -15 -4 -35 -10 -45 -27 -52 -22 -138 10 -161 30 -21
80 -22 80 -1 0 4 19 27 42 52 47 49 57 117 22 158 -25 28 -30 20 -28 -42 2
-62 -27 -104 -76 -109 -25 -3 -25 -2 -25 79 0 44 -3 85 -7 89 -5 4 -8 -5 -8
-20z"/><path d="M770 1028 c0 -9 -5 -20 -10 -23 -7 -4 -7 -12 0 -25 18 -34 -10 -34
-40 0 -16 18 -31 38 -33 44 -3 8 -10 8 -23 0 -30 -17 -28 -34 3 -34 29 0 59
-32 48 -50 -10 -16 -37 -12 -51 8 -10 12 -13 13 -14 3 0 -29 50 -60 82 -49 30
10 57 -8 58 -38 0 -10 21 -24 36 -24 10 0 2 28 -18 67 -17 32 -20 45 -11 54
18 18 47 2 62 -33 33 -75 152 -151 185 -118 20 20 24 154 4 177 -16 20 -40
-53 -25 -78 15 -24 1 -52 -19 -41 -9 5 -25 7 -35 5 -20 -6 -69 89 -49 95 5 2
10 22 10 44 0 53 -32 51 -40 -2 -6 -40 -36 -52 -64 -25 -23 24 -20 36 9 29 19
-5 25 -2 25 10 0 17 -5 18 -57 20 -25 1 -33 -3 -33 -16z"/><path d="M1705 1009 c-48 -47 -59 -49 -52 -9 6 26 4 30 -16 29 -12 -1 -37 2
-55 6 -33 8 -33 8 -30 -31 3 -36 5 -39 31 -36 28 4 42 -41 15 -50 -13 -5 -4
-38 10 -38 5 0 22 18 37 40 29 42 65 54 65 22 0 -9 9 -23 20 -30 17 -10 20
-10 20 4 0 9 8 23 17 29 17 12 17 14 -2 35 -15 17 -17 25 -8 39 11 17 8 32 -6
30 -3 -1 -24 -18 -46 -40z"/><path d="M1530 813 c-25 -31 -65 -77 -88 -102 -24 -25 -51 -59 -59 -75 -48
-91 -170 -138 -252 -96 -21 10 -41 17 -44 14 -11 -11 5 -34 24 -34 12 0 23
-10 29 -26 9 -23 14 -25 45 -20 31 6 35 4 35 -13 0 -27 -34 -46 -49 -27 -6 7
-22 11 -35 9 -22 -4 -25 -1 -28 27 -2 19 -11 38 -22 44 -41 23 -53 41 -39 55
18 16 6 33 -18 26 -13 -5 -19 -2 -19 10 0 9 5 13 10 10 43 -26 -30 73 -123
168 -95 97 -63 25 37 -86 19 -21 38 -48 42 -60 3 -12 15 -37 26 -55 11 -18 18
-36 15 -39 -12 -11 -73 37 -91 72 -22 40 -102 101 -109 82 -2 -7 3 -22 11 -34
8 -13 12 -23 8 -23 -3 0 7 -19 24 -42 19 -26 28 -48 24 -60 -5 -16 -1 -19 23
-16 25 3 28 0 31 -29 3 -27 7 -33 27 -33 19 0 26 -7 33 -32 7 -28 12 -33 35
-30 20 3 29 -3 41 -26 11 -21 21 -29 34 -26 10 3 26 -4 36 -15 22 -24 49 -27
65 -7 6 7 22 11 36 8 22 -4 25 -1 25 22 0 26 13 35 25 16 8 -13 35 -13 35 -1
0 34 21 61 39 52 17 -9 20 -6 28 27 6 27 15 38 30 40 12 2 34 18 47 35 14 18
32 40 41 50 8 9 15 23 15 30 0 6 11 25 25 41 14 16 25 33 25 37 0 4 3 14 6 23
17 44 -59 -19 -140 -117 -49 -60 -92 -69 -46 -10 11 14 20 37 20 51 0 16 14
38 40 63 22 21 40 41 40 45 0 3 9 16 20 28 45 48 80 91 80 99 0 21 -30 0 -70
-50z"/><path d="M2101 704 c-14 -49 -14 -64 -1 -64 6 0 10 14 10 31 0 17 4 28 10 24
12 -8 13 15 1 34 -7 11 -12 4 -20 -25z"/><path d="M464 457 c-8 -22 11 -46 26 -31 7 7 5 17 -4 30 -14 18 -15 18 -22 1z"/><path d="M594 299 c-3 -6 -1 -16 4 -21 13 -13 45 8 36 23 -7 12 -31 11 -40 -2z"/><path d="M1710 263 c0 -14 2 -15 9 -4 7 11 11 10 20 -5 9 -14 14 -15 17 -6 3
6 10 10 15 6 5 -3 9 2 9 10 0 12 -10 16 -35 16 -27 0 -35 -4 -35 -17z"/><path d="M686 261 c-8 -12 21 -34 34 -26 17 11 11 35 -9 35 -11 0 -22 -4 -25
-9z"/></g>
<g transform="translate(0.000000,254.000000) scale(0.100000,-0.100000)" fill="#4c2e1c" stroke="#4c2e1c" stroke-width="1.5" stroke-linejoin="round" fill-rule="evenodd"><path d="M1735 2410 c-10 -11 -30 -20 -44 -20 -30 -1 -61 -21 -61 -41 0 -24
-39 -74 -57 -74 -13 0 -19 -9 -21 -35 -4 -41 16 -60 63 -60 17 0 37 -6 44 -12
11 -11 12 -7 7 18 -7 34 23 84 50 84 9 0 36 12 61 27 42 24 48 25 95 14 38 -8
54 -8 64 0 8 6 14 8 14 3 0 -4 5 -3 12 4 18 18 68 15 68 -3 0 -8 9 -15 20 -15
11 0 20 -4 20 -9 0 -5 9 -13 20 -16 11 -3 20 -10 20 -15 0 -4 -9 -6 -20 -3
-27 7 -25 1 11 -38 23 -24 27 -34 17 -41 -10 -7 -10 -11 2 -21 8 -6 15 -21 15
-32 0 -13 8 -21 23 -23 30 -5 30 44 0 84 -22 29 -22 29 -1 11 28 -24 47 -14
32 16 -7 12 -8 19 -4 15 5 -4 14 -3 21 2 35 30 59 -61 29 -110 -4 -6 6 -10 24
-10 23 0 31 5 31 18 0 10 5 23 12 30 16 16 20 49 8 57 -6 3 -10 14 -10 23 -1
41 -87 86 -162 85 -52 -1 -71 2 -75 13 -3 9 -12 13 -19 10 -7 -3 -16 -1 -19 4
-4 6 -15 10 -26 10 -11 0 -22 7 -26 16 -7 20 -54 12 -89 -15 -32 -25 -94 -37
-105 -19 -7 10 -12 11 -29 1 -56 -35 -65 -6 -10 32 38 27 46 45 24 52 -6 2
-19 -6 -29 -17z"/><path d="M336 2375 c-4 -11 -11 -13 -31 -5 -32 12 -60 3 -45 -15 8 -9 5 -14
-12 -19 -20 -5 -21 -8 -8 -17 13 -9 12 -10 -3 -5 -10 3 -28 1 -39 -5 -15 -8
-22 -8 -28 1 -13 22 -55 -11 -58 -45 -4 -56 -3 -70 8 -73 5 -2 10 -9 10 -16 0
-7 11 -27 25 -46 22 -29 25 -31 25 -13 0 12 -6 28 -14 36 -8 8 -12 24 -9 42 5
22 3 26 -8 21 -8 -4 -3 1 11 12 14 12 22 24 18 28 -4 4 -14 1 -23 -6 -9 -8
-15 -8 -15 -2 0 14 8 18 48 27 26 5 32 3 32 -10 0 -12 4 -14 19 -5 30 16 38
11 15 -8 -36 -30 -51 -66 -25 -59 23 6 27 -3 9 -21 -9 -9 -9 -12 4 -12 8 0 27
18 42 40 29 44 32 55 14 44 -10 -6 -10 -4 0 7 6 7 12 23 12 34 0 14 10 26 28
34 50 24 57 29 55 40 -4 14 14 14 22 1 4 -6 16 -8 28 -5 12 2 16 2 10 -1 -18
-8 -16 -37 1 -31 19 8 10 -23 -12 -41 -12 -9 -13 -15 -5 -23 8 -8 15 -5 24 12
7 13 21 30 31 37 19 14 15 38 -4 26 -6 -4 -6 2 1 15 7 11 18 21 26 21 8 0 15
5 15 11 0 11 -28 9 -64 -6 -14 -6 -17 -5 -12 3 5 9 -9 12 -52 12 -44 0 -61 -4
-66 -15z"/><path d="M730 2350 c0 -22 2 -21 -60 -24 -35 -1 -46 -5 -48 -20 -3 -12 0 -16
8 -11 40 25 110 -39 110 -99 0 -35 5 -47 25 -60 34 -22 52 -21 32 2 -33 36 20
83 63 57 10 -6 30 26 30 50 0 24 -111 125 -137 125 -16 0 -23 -6 -23 -20z"/><path d="M431 2190 c-39 -38 -48 -76 -15 -63 36 14 -3 -41 -52 -74 -18 -11
-22 -19 -14 -27 13 -13 130 -10 144 4 5 5 18 10 29 10 24 0 52 27 34 33 -9 3
-9 10 2 30 13 24 16 26 31 12 19 -17 50 -20 50 -5 0 13 -33 30 -62 31 -13 0
-44 1 -70 2 -53 2 -58 8 -28 34 23 20 27 53 6 53 -7 0 -32 -18 -55 -40z"/><path d="M345 2185 c-19 -20 -35 -41 -35 -47 0 -6 -12 -22 -27 -36 -29 -26
-17 -46 12 -22 12 10 15 9 15 -4 0 -9 2 -16 6 -16 12 0 74 56 74 68 0 14 -16
16 -25 2 -3 -5 -13 -10 -22 -10 -14 0 -13 4 4 23 63 69 62 105 -2 42z"/><path d="M1933 2203 c-33 -4 -42 -16 -23 -28 21 -13 9 -25 -24 -25 -57 0 -64
-25 -11 -40 48 -13 73 -34 55 -45 -5 -3 -14 -4 -18 -1 -13 8 -93 -35 -89 -48
2 -6 10 -11 18 -11 18 0 31 -18 18 -26 -6 -3 -12 -20 -14 -38 -2 -18 0 -29 5
-26 6 4 10 2 10 -3 0 -24 43 -19 72 7 29 26 30 29 18 63 -17 47 -8 68 30 68
31 0 31 0 11 29 -25 34 -6 66 24 41 25 -21 17 3 -16 48 -17 23 -31 41 -32 40
-1 0 -17 -3 -34 -5z"/><path d="M680 2102 c0 -12 23 -32 37 -32 7 0 13 7 13 16 0 8 -4 12 -10 9 -5
-3 -10 -1 -10 4 0 6 -7 11 -15 11 -8 0 -15 -4 -15 -8z"/><path d="M2060 2090 c0 -6 8 -13 18 -17 9 -3 28 -15 42 -27 20 -18 20 -15 -5
16 -29 35 -55 49 -55 28z"/><path d="M2240 2087 c0 -10 -4 -16 -9 -13 -5 3 -11 -4 -15 -17 -10 -38 -7 -41
19 -13 19 21 23 31 15 44 -9 16 -9 16 -10 -1z"/><path d="M494 1985 c-20 -50 -3 -79 44 -71 49 7 64 22 49 49 -38 68 -70 76
-93 22z"/><path d="M478 1458 c-18 -16 -48 -105 -48 -147 0 -16 -5 -42 -12 -56 -6 -14
-8 -28 -5 -31 6 -7 56 45 57 59 0 4 10 21 22 37 19 26 20 33 9 54 -9 15 -11
38 -7 60 8 40 7 41 -16 24z"/><path d="M1942 1433 c1 -16 -2 -53 -6 -83 -7 -55 -7 -55 35 -89 42 -35 42 -35
35 -5 -3 16 -8 52 -10 79 -4 66 -57 161 -54 98z"/><path d="M373 1193 c-3 -10 -8 -21 -10 -26 -2 -4 7 -2 22 5 26 11 29 28 7 36
-7 2 -15 -5 -19 -15z"/><path d="M1158 1119 c-10 -5 -18 -15 -18 -20 0 -6 5 -7 11 -3 7 4 25 7 40 6
31 -1 39 12 13 22 -21 8 -26 7 -46 -5z"/><path d="M1550 887 c-23 -42 -23 -42 -1 -22 29 25 44 52 33 59 -5 3 -19 -14
-32 -37z"/><path d="M1100 896 c0 -8 9 -18 20 -21 11 -3 20 -10 20 -15 0 -4 9 -10 21 -13
16 -4 13 2 -15 29 -39 38 -46 41 -46 20z"/><path d="M1265 870 c-10 -11 -23 -19 -29 -18 -6 2 -12 0 -13 -5 -2 -4 -1 -7 2
-7 3 0 14 0 25 0 10 0 24 9 30 21 16 28 7 33 -15 9z"/><path d="M1050 781 c0 -19 44 -36 83 -33 10 1 29 -5 43 -14 23 -15 26 -15 43
0 9 9 31 16 48 16 56 0 91 11 96 31 4 14 0 19 -14 19 -11 0 -19 -7 -19 -17 0
-11 -3 -14 -8 -7 -13 18 -84 9 -102 -14 -17 -20 -17 -20 -33 -1 -13 14 -27 18
-57 16 -28 -2 -40 1 -40 10 0 7 -9 13 -20 13 -13 0 -20 -7 -20 -19z"/></g></svg>